<svg width="32" height="32" viewBox="0 0 32 32" fill="none" xmlns="http://www.w3.org/2000/svg">
<path d="M29.2792 6.66669H2.72082C2.32224 6.66669 2 6.99868 2 7.40819V24.5913C2 25.0009 2.32224 25.3334 2.72082 25.3334H29.2792C29.6778 25.3334 30 25.0014 30 24.5919V7.40819C30 6.99868 29.6778 6.66669 29.2792 6.66669ZM8.88796 15.1955L8.80467 15.0012V15.0119C8.80467 15.2613 8.60786 15.4638 8.36544 15.4638H7.07203C6.89356 15.4638 6.73343 15.3531 6.66551 15.1838L6.53314 14.8533H5.79646L5.66211 15.1858C5.59469 15.3541 5.43407 15.4643 5.25758 15.4643H4.5665C4.41877 15.4643 4.28095 15.3878 4.19965 15.2613C4.11884 15.1338 4.10446 14.9737 4.16296 14.8345L5.3012 12.0974C5.37011 11.9317 5.52925 11.8236 5.70524 11.8236H6.64915C6.82514 11.8236 6.98329 11.9312 7.05319 12.0969L7.29164 12.6691V12.2759C7.29164 12.0265 7.48796 11.8241 7.73088 11.8241H8.76948C8.94001 11.8241 9.09618 11.9271 9.16856 12.0867L9.58449 13.0159L9.96225 12.1C10.0307 11.9327 10.1903 11.8241 10.3658 11.8241H11.4257C11.5149 11.8241 11.5928 11.8582 11.6627 11.9052C11.7321 11.8582 11.8099 11.8241 11.8996 11.8241H14.0234C14.1057 11.8241 14.1786 11.8537 14.2436 11.8939C14.3095 11.8537 14.3819 11.8241 14.4642 11.8241H15.9266C16.3049 11.8241 16.6177 11.8378 16.9166 12.0153C16.9469 12.0342 16.9687 12.0582 16.996 12.0786C17.0674 11.9296 17.2141 11.8241 17.3871 11.8241H18.036C18.2557 11.8241 18.4302 11.9924 18.4624 12.2081C18.747 11.9546 19.1346 11.8241 19.6562 11.8241H20.2714C20.3691 11.8241 20.4608 11.8572 20.5336 11.9138C20.6075 11.8567 20.6992 11.8241 20.7964 11.8241H21.7487C21.9242 11.8241 22.0824 11.9322 22.1523 12.0979L22.3858 12.6599V12.2759C22.3858 12.0265 22.5826 11.8241 22.8255 11.8241H23.7937C23.9479 11.8241 24.0902 11.9067 24.1695 12.0423L24.4719 12.5579V12.2754C24.4719 12.026 24.6692 11.8236 24.9121 11.8236H25.5625C25.8055 11.8236 26.0018 12.026 26.0018 12.2754V15.0125C26.0018 15.2618 25.8045 15.4643 25.5625 15.4643H24.6623C24.5071 15.4643 24.3648 15.3817 24.285 15.246L23.8948 14.5805V15.0125C23.8948 15.2618 23.6975 15.4643 23.4556 15.4643H22.1612C21.9842 15.4643 21.8251 15.3546 21.7557 15.1864L21.6213 14.8538H20.8886L20.7587 15.1818C20.6928 15.3526 20.5312 15.4648 20.3532 15.4648H19.6086C19.3255 15.4648 18.8188 15.4123 18.4574 15.1007C18.4163 15.3067 18.2477 15.4648 18.0351 15.4648H17.3856C17.3137 15.4648 17.2478 15.4424 17.1868 15.4102C17.1268 15.4424 17.0619 15.4648 16.9895 15.4648H16.348C16.1066 15.4648 15.9103 15.2644 15.9083 15.0165L15.9058 14.6713L15.9068 14.6111C15.9068 14.5744 15.9078 14.5193 15.9048 14.4729C15.8756 14.4709 15.8364 14.4693 15.7814 14.4693H15.539V15.013C15.539 15.2623 15.3421 15.4648 15.0997 15.4648H14.4632C14.3809 15.4648 14.309 15.4352 14.2426 15.3949C14.1776 15.4352 14.1047 15.4648 14.0225 15.4648H11.8987C11.8089 15.4648 11.7311 15.4301 11.6617 15.3837C11.5918 15.4301 11.514 15.4648 11.4247 15.4648H10.7728C10.5299 15.4648 10.3336 15.2629 10.3336 15.0135V15.0023L10.2493 15.196C10.1789 15.3597 10.0222 15.4653 9.84773 15.4653H9.28902C9.11551 15.4653 8.95786 15.3592 8.88796 15.1955ZM26.436 20.1749H25.1977C25.0162 20.1749 24.861 20.0612 24.7936 19.9001C24.5522 20.076 24.2329 20.1749 23.8378 20.1749H22.5994C22.5295 20.1749 22.4671 20.1551 22.4086 20.126C22.3506 20.1551 22.2876 20.1749 22.2182 20.1749H20.0964C20.0255 20.1749 19.9606 20.1551 19.9021 20.1239C19.8431 20.154 19.7791 20.1749 19.7087 20.1749H19.0707C18.8273 20.1749 18.631 19.9725 18.631 19.7231V19.3253C18.6319 19.2866 18.6319 19.2274 18.629 19.179C18.5997 19.1769 18.5586 19.1749 18.5001 19.1749H18.2601V19.7231C18.2601 19.973 18.0633 20.1749 17.8209 20.1749H17.1819C16.9385 20.1749 16.7421 19.9725 16.7421 19.7231V19.0275C16.5166 19.1657 16.2052 19.2565 15.7759 19.2565H15.4225V19.7231C15.4225 19.973 15.2256 20.1749 14.9827 20.1749H13.7468C13.6214 20.1749 13.5014 20.1199 13.4181 20.0235L12.9576 19.49L12.4722 20.0306C12.389 20.1229 12.2725 20.176 12.15 20.176H9.63109C9.38817 20.176 9.19186 19.973 9.19186 19.7236V16.9866C9.19186 16.7362 9.38867 16.5342 9.63109 16.5342H12.1882C12.3136 16.5342 12.4321 16.5883 12.5149 16.6842L12.9769 17.213L13.4583 16.6785C13.5416 16.5862 13.6581 16.5342 13.7805 16.5342H15.8121C16.2573 16.5342 16.5706 16.6357 16.7932 16.7856C16.8651 16.6377 17.0098 16.5342 17.1819 16.5342H18.6503C18.9884 16.5342 19.3156 16.5475 19.6225 16.7163C19.6557 16.7362 19.677 16.7622 19.7077 16.7836C19.7801 16.6372 19.9234 16.5342 20.0949 16.5342H22.2167C22.3813 16.5342 22.5201 16.6316 22.5955 16.7698C22.8047 16.624 23.0823 16.5342 23.4323 16.5342H24.7064C24.8982 16.5342 25.0559 16.6612 25.1169 16.8361C25.335 16.6541 25.6329 16.5342 26.03 16.5342H27.3051C27.5475 16.5342 27.7438 16.7367 27.7438 16.9866V17.569C27.7438 17.7286 27.6645 17.8688 27.5431 17.9494C27.5465 17.9535 27.5515 17.9581 27.5559 17.9627C27.7741 18.1932 27.8732 18.4777 27.8732 18.8602C27.8732 19.6833 27.3363 20.176 26.436 20.1749Z" fill="#161616"/>
<path d="M16.5691 13.7427C16.7347 13.6753 17.0173 13.4494 17.0173 13.0134C17.0173 12.7079 16.8963 12.5294 16.696 12.407C16.4898 12.2846 16.2503 12.276 15.9256 12.276H14.4632V15.013H15.0997V14.0181H15.7814C16.0104 14.0181 16.1522 14.039 16.2449 14.1348C16.3604 14.2664 16.345 14.503 16.345 14.6678L16.348 15.013H16.9895V14.475C16.9895 14.2307 16.9741 14.1093 16.8839 13.9732C16.8274 13.8931 16.7084 13.7972 16.5691 13.7427ZM16.1864 13.3979C16.0982 13.4525 15.995 13.454 15.8716 13.454H15.0987L15.0992 12.8466H15.8825C15.9926 12.8466 16.1086 12.8522 16.1839 12.8961C16.2662 12.9359 16.3173 13.0205 16.3173 13.1378C16.3173 13.2572 16.2682 13.3536 16.1864 13.3979Z" fill="#161616"/>
<path d="M18.037 12.2764H17.3881V15.0135H18.037V12.2764Z" fill="#161616"/>
<path d="M24.9121 12.2764V14.1827L23.7937 12.2764H22.8255V14.8651L21.7487 12.2764H20.7964L19.8981 14.4285H19.6131C19.447 14.4285 19.2675 14.3959 19.1699 14.2873C19.0504 14.1496 18.9949 13.9379 18.9949 13.6452C18.9949 13.3576 19.0687 13.1403 19.1773 13.0251C19.3032 12.8986 19.4336 12.8629 19.6671 12.8629H20.2694V12.2764H19.6542C19.216 12.2764 18.8932 12.3769 18.6885 12.5952C18.4158 12.8884 18.3459 13.2597 18.3459 13.6656C18.3459 14.1628 18.4629 14.478 18.687 14.7105C18.9081 14.9426 19.2992 15.013 19.6091 15.0135H20.3537L20.5927 14.403H21.9133L22.1612 15.0135H23.4556V12.9593L24.6623 15.0135H25.5626V12.2764H24.9121V12.2764ZM20.8202 13.8319L21.257 12.741L21.6977 13.8319H20.8202Z" fill="#161616"/>
<path d="M19.6686 13.3142C19.5188 13.3137 19.5035 13.33 19.4851 13.3479C19.4792 13.3565 19.4346 13.455 19.4346 13.6447C19.4346 13.8324 19.4638 13.9226 19.4851 13.9634C19.5074 13.9695 19.5486 13.9767 19.6101 13.9767L19.8857 13.3142H19.6686Z" fill="#161616"/>
<path d="M22.2177 17.5521V16.9861H20.0959V19.7236H22.2177V19.156L20.7284 19.1524V18.6088H22.181V18.0499H20.7284V17.5521H22.2177Z" fill="#161616"/>
<path d="M15.8121 16.9871H13.7805L12.9715 17.8837L12.1882 16.9871H9.63109V19.7242H12.15L12.964 18.8179L13.7473 19.7242H14.9832V18.8062H15.7764C16.3322 18.8062 16.8834 18.6491 16.8834 17.8888C16.8834 17.1309 16.3168 16.9861 15.8121 16.9871ZM11.8283 19.1545H10.2656V18.6099H11.6612V18.0509H10.2656V17.5532H11.8595L12.555 18.3503L11.8283 19.1545ZM14.3496 19.4753L13.373 18.3595L14.3496 17.2804V19.4753ZM15.8042 18.2493H14.9832V17.5522H15.8121C16.0421 17.5522 16.2008 17.6486 16.2008 17.8883C16.2008 18.1254 16.0491 18.2503 15.8042 18.2493Z" fill="#161616"/>
<path d="M19.2923 18.4512C19.4589 18.3829 19.7429 18.1605 19.7439 17.7225C19.7439 17.4104 19.6175 17.239 19.4177 17.1146C19.2075 16.9998 18.9735 16.9861 18.6518 16.9861H17.1839V19.7231H17.8224V18.7235H18.5016C18.7336 18.7235 18.8749 18.747 18.9681 18.8449C19.086 18.9724 19.0707 19.2162 19.0707 19.3809V19.7231H19.7087V19.1805C19.7067 18.9393 19.6938 18.8148 19.6031 18.6812C19.5496 18.6022 19.4331 18.5043 19.2923 18.4512ZM18.9091 18.1111C18.8238 18.1631 18.7182 18.1677 18.5943 18.1677H17.8214V17.5526H18.6047C18.7167 17.5526 18.8307 17.5552 18.9081 17.6021C18.9904 17.6465 19.0394 17.7316 19.0394 17.8484C19.0394 17.9652 18.9904 18.0606 18.9091 18.1111Z" fill="#161616"/>
<path d="M24.6479 18.2783C24.5016 18.1294 24.2647 18.0682 23.9196 18.0601L23.5781 18.0499C23.4695 18.0499 23.3981 18.0427 23.3302 18.0187C23.2504 17.9876 23.1914 17.9183 23.1914 17.8148C23.1914 17.7281 23.2172 17.6623 23.2875 17.6174C23.351 17.573 23.4259 17.5679 23.5424 17.5679H24.7084V16.9855H23.4343C22.767 16.9855 22.5251 17.4027 22.5251 17.8005C22.5251 18.6659 23.2702 18.6271 23.8641 18.647C23.9757 18.647 24.0421 18.6659 24.0907 18.7077C24.1353 18.7465 24.168 18.8087 24.168 18.8888C24.168 18.9632 24.1373 19.0254 24.0936 19.0673C24.0401 19.1193 23.9543 19.1351 23.8344 19.1351H22.6009V19.7221H23.8393C24.4803 19.7221 24.8388 19.4472 24.8388 18.8582C24.8388 18.5772 24.7718 18.4099 24.6479 18.2783Z" fill="#161616"/>
<path d="M10.3653 12.2754L9.60135 14.1322L8.76898 12.2754H7.73088V14.8671L6.64866 12.2754H5.70475L4.56601 15.0125H5.25659L5.50347 14.402H6.82713L7.07153 15.0125H8.36544V12.867L9.28903 15.012L9.84873 15.0125L10.7708 12.869L10.7733 15.0125H11.4252V12.2754H10.3653V12.2754ZM5.73003 13.8319L6.16233 12.741L6.5971 13.8319H5.73003Z" fill="#161616"/>
<path d="M14.022 12.8456V12.2754H11.8982V15.013H14.022V14.4469H12.5337V13.8997H13.9868V13.3392H12.5337V12.8456H14.022Z" fill="#161616"/>
<path d="M27.2456 18.2783C27.1004 18.1294 26.8629 18.0682 26.5178 18.0601L26.1758 18.0499C26.0682 18.0499 25.9963 18.0427 25.9279 18.0187C25.8491 17.9876 25.7896 17.9183 25.7896 17.8148C25.7896 17.7281 25.8154 17.6623 25.8853 17.6174C25.9492 17.573 26.0246 17.5679 26.1406 17.5679H27.3071V16.9855H26.032C25.3657 16.9855 25.1228 17.4027 25.1228 17.8005C25.1228 18.6659 25.8684 18.6271 26.4628 18.647C26.5739 18.647 26.6398 18.6659 26.6894 18.7077C26.733 18.7465 26.7662 18.8087 26.7662 18.8888C26.7662 18.9632 26.735 19.0254 26.6923 19.0673C26.6383 19.1193 26.5525 19.1351 26.4326 19.1351H25.1996V19.7221H26.438C27.079 19.7221 27.4365 19.4472 27.4365 18.8582C27.4365 18.5772 27.3705 18.4099 27.2456 18.2783Z" fill="#161616"/>
</svg>
