<svg width="32" height="32" viewBox="0 0 32 32" fill="none" xmlns="http://www.w3.org/2000/svg">
<path d="M5.19937 27.2643L5.20198 27.2683V27.2669L5.19937 27.2643Z" fill="#161616"/>
<path d="M5.31528 25.6278C5.1675 25.6278 5.02419 25.6152 4.87897 25.6132V25.6833H4.93629C5.03438 25.6833 5.23056 25.7295 5.23056 26.0138L5.22547 27.2775L5.2191 27.2841L5.20827 27.2954L3.77515 25.6139C3.67961 25.6139 3.58598 25.6278 3.48789 25.6278C3.37069 25.6278 3.24967 25.6152 3.13247 25.6139L3.13184 25.6846H3.15986C3.31145 25.6846 3.46623 25.8042 3.46623 26.0005V27.4097C3.46623 27.6754 3.39489 27.8479 3.16305 27.8492L3.13247 27.8479V27.9193C3.27133 27.9193 3.41528 27.9054 3.55668 27.9054C3.69107 27.9054 3.82483 27.918 3.95795 27.9193V27.8492H3.91782C3.66368 27.8473 3.60063 27.7329 3.60063 27.4421V26.0263L5.27324 27.9682H5.37961C5.36559 27.8664 5.36305 27.7567 5.36305 27.6457V26.1235C5.36305 25.7236 5.52483 25.6846 5.66432 25.6846H5.69744V25.6139C5.57069 25.6145 5.4433 25.6278 5.31528 25.6278Z" fill="#161616"/>
<path d="M5.71145 25.5875C5.57833 25.5849 5.44648 25.5968 5.31527 25.5968C5.16495 25.5968 5.01591 25.5836 4.86432 25.5836H4.8503V25.6986V25.7124H4.93565C5.02865 25.7151 5.20062 25.7475 5.20189 26.0132V27.2426L3.78597 25.5902C3.67705 25.5849 3.58406 25.5968 3.48788 25.5968C3.3675 25.5968 3.24139 25.5842 3.11782 25.5842H3.10381V25.6986V25.7124H3.15986C3.29807 25.7138 3.43884 25.8208 3.43884 26V27.4085C3.43693 27.6735 3.37578 27.8163 3.16304 27.8176H3.11782H3.10381V27.9326V27.9465H3.11782C3.26368 27.9465 3.41209 27.9333 3.55603 27.9333C3.69361 27.9333 3.83247 27.9465 3.97132 27.9465H3.98597V27.8328V27.8189H3.91654C3.67387 27.8156 3.63183 27.733 3.62737 27.4428V26.1037L5.2624 27.9941L5.39553 28H5.41145L5.4089 27.9822C5.39425 27.8817 5.39043 27.7654 5.39043 27.6477V26.1269C5.39361 25.7309 5.52992 25.7204 5.66368 25.7164H5.71145H5.72482V25.6014V25.5875H5.71145V25.5875ZM5.71336 25.7005H5.71209H5.66432C5.52865 25.7005 5.37705 25.7276 5.37705 26.1269V27.6477C5.37705 27.7654 5.3796 27.8817 5.39616 27.9855H5.27323L3.614 26.0661V27.4441C3.614 27.7356 3.66877 27.8354 3.91718 27.8354H3.97132V27.9359C3.8331 27.9359 3.69489 27.9227 3.55667 27.9227C3.41209 27.9227 3.26368 27.9359 3.11846 27.9359V27.8354H3.16304C3.38533 27.8354 3.45412 27.6788 3.45412 27.4118V26.0026C3.45412 25.8156 3.30508 25.7019 3.16049 25.7019H3.11909V25.6021C3.24139 25.6021 3.36623 25.6159 3.48979 25.6159C3.58597 25.6159 3.6796 25.6021 3.77705 25.6021L5.21081 27.2769L5.21654 27.2703V26.0171C5.21654 25.7422 5.03311 25.7012 4.93693 25.7012H4.86559V25.6014C5.01718 25.6014 5.16495 25.6153 5.31654 25.6153C5.44903 25.6153 5.58088 25.6014 5.71336 25.6014V25.7005Z" fill="#161616"/>
<path d="M9.89619 27.3939C9.80001 27.77 9.61275 27.8037 9.23186 27.801C9.02867 27.801 8.82549 27.801 8.82549 27.5684V26.7752H9.22549C9.44969 26.7726 9.47326 26.9134 9.48918 27.1044L9.55861 27.0885C9.55224 26.9656 9.54905 26.842 9.54905 26.719C9.54905 26.5941 9.55224 26.4685 9.55861 26.3423H9.48918C9.47135 26.5148 9.41912 26.6384 9.2223 26.6364H8.82549V25.7309H9.28663C9.62166 25.7289 9.67835 25.9074 9.69237 26.1176L9.76179 26.0997C9.75542 26.0059 9.75224 25.8829 9.75224 25.7719C9.75224 25.715 9.75287 25.6609 9.75542 25.6139C9.53695 25.6146 9.2102 25.6278 8.94587 25.6278C8.68026 25.6278 8.35542 25.6152 8.15733 25.6139V25.684H8.18854C8.30319 25.684 8.44077 25.7051 8.44077 25.8902V27.6417C8.44077 27.8261 8.30319 27.8466 8.18854 27.848H8.15733V27.9167C8.34523 27.9167 8.71721 27.9035 9.00001 27.9035C9.28472 27.9035 9.64842 27.9167 9.85606 27.9167C9.88345 27.7488 9.92039 27.5796 9.95988 27.4097L9.89619 27.3939Z" fill="#161616"/>
<path d="M7.96563 25.4843L7.95098 25.479L7.94907 25.4936C7.94397 25.5815 7.87837 25.5828 7.78856 25.5848H6.12741H6.11149C6.02932 25.5828 5.96945 25.5815 5.94716 25.4975L5.94588 25.487H5.85671H5.84334V25.5008C5.84334 25.5973 5.8376 25.6905 5.82359 25.7831C5.81404 25.8796 5.79811 25.9741 5.7841 26.0666L5.78346 26.0851H5.89556H5.90703L5.90894 26.0732C5.96181 25.8254 5.95735 25.7837 6.19493 25.7804H6.70958V27.5518C6.70576 27.8116 6.63378 27.8135 6.45735 27.8175H6.39556H6.38219V27.9325V27.9464H6.39556C6.52168 27.9464 6.74779 27.9325 6.94015 27.9325C7.11276 27.9325 7.33824 27.9464 7.46563 27.9464H7.479V27.8314V27.8175H7.40321C7.2497 27.8135 7.15289 27.797 7.15034 27.5445V25.7804H7.66435C7.86818 25.7804 7.88091 25.9622 7.88983 26.0878L7.89047 26.1069L8.00448 26.064L8.0134 26.06V26.0501C8.0134 25.9596 8.0134 25.8703 8.01913 25.7818C8.02869 25.6912 8.04142 25.6026 8.0548 25.5121L8.05671 25.4982L7.96563 25.4843ZM8.00512 25.7804C7.99939 25.8716 7.99939 25.9609 7.99939 26.0501L7.90193 26.0884C7.89493 25.9648 7.87964 25.7679 7.66372 25.7679H7.13569V27.5458C7.13569 27.8049 7.24843 27.8347 7.40193 27.8347H7.46435V27.9345C7.33888 27.9345 7.11276 27.9206 6.93951 27.9206C6.74588 27.9206 6.52041 27.9345 6.39493 27.9345V27.8347H6.45544C6.63314 27.8347 6.72295 27.8188 6.72295 27.5538V25.7679H6.19429C5.95289 25.7679 5.94333 25.8287 5.89493 26.0726H5.79811C5.81149 25.9774 5.82741 25.8855 5.83697 25.7864C5.8497 25.6925 5.85607 25.6 5.85607 25.5022H5.93442C5.96053 25.602 6.04079 25.5987 6.12741 25.5987H7.78983C7.87709 25.5987 7.95735 25.5954 7.96435 25.4956L8.04079 25.5094C8.02741 25.6007 8.01531 25.6886 8.00512 25.7804Z" fill="#161616"/>
<path d="M7.97454 25.5128C7.96053 25.6099 7.87008 25.6152 7.78919 25.6139H6.12741H6.11212C6.03633 25.6139 5.95289 25.6113 5.92422 25.5181H5.87136C5.87008 25.6093 5.86435 25.6998 5.85161 25.7884C5.8427 25.879 5.82805 25.9669 5.81531 26.0561H5.88473C5.92677 25.8234 5.95544 25.7474 6.19493 25.7514H6.7376V27.5525C6.7376 27.8215 6.63314 27.8486 6.45671 27.8493H6.4083V27.918C6.53569 27.918 6.75352 27.9054 6.93951 27.9054C7.10766 27.9054 7.32231 27.918 7.45034 27.918V27.8493H7.40321C7.24779 27.8486 7.12104 27.8076 7.12104 27.5459V25.7521H7.66372C7.88091 25.7527 7.9083 25.9444 7.91594 26.0687L7.98473 26.0416C7.98473 25.9556 7.98537 25.8677 7.9911 25.7798C8.00066 25.6932 8.01276 25.608 8.02486 25.5214L7.97454 25.5128Z" fill="#161616"/>
<path d="M2.99618 25.5842C2.84395 25.5849 2.65096 25.5968 2.49108 25.5968C2.33376 25.5968 2.14076 25.5836 2.01338 25.5836H2V25.6986V25.7124H2.0586C2.17516 25.7138 2.28217 25.7263 2.2828 25.8902V27.6411C2.28217 27.805 2.17516 27.8156 2.0586 27.8176H2.01338H2V27.8315V27.9319V27.9458H2.01338C2.14076 27.9458 2.33057 27.9319 2.48726 27.9319C2.64841 27.9319 2.84076 27.9458 2.99618 27.9458H3.01083V27.8308V27.8176H2.95159C2.83439 27.8156 2.72675 27.8057 2.72675 27.6418V25.8902C2.72675 25.7263 2.83439 25.7144 2.95159 25.7131H2.99618H3.01083V25.5994V25.5842H2.99618ZM2.99554 25.7005H2.95096C2.83503 25.7005 2.7121 25.7157 2.7121 25.8916V27.6418C2.7121 27.8176 2.83503 27.8328 2.95096 27.8328H2.99554V27.9333C2.84076 27.9333 2.64777 27.92 2.48662 27.92C2.32866 27.92 2.13885 27.9333 2.01274 27.9333V27.8328H2.05796C2.17389 27.8328 2.29618 27.8183 2.29618 27.6418V25.8916C2.29618 25.7157 2.17389 25.7005 2.05796 25.7005H2.01274V25.6014C2.13885 25.6014 2.33185 25.6146 2.49045 25.6146C2.65096 25.6146 2.84395 25.6014 2.99554 25.6014V25.7005V25.7005Z" fill="#161616"/>
<path d="M17.4975 3.99997H14.2465C10.4242 3.99799 7.27708 6.95577 7.27708 11.2328C7.27708 15.1457 10.4236 18.3612 14.2465 18.3414H17.4975C21.2752 18.3599 24.7229 15.1444 24.7229 11.2328C24.7229 6.95445 21.2745 3.99799 17.4975 3.99997ZM14.2618 17.7241C10.7688 17.7221 7.93759 14.7835 7.93696 11.1581C7.93759 7.53146 10.7688 4.59285 14.2618 4.59219C17.7554 4.59285 20.5873 7.53212 20.5873 11.1581C20.5873 14.7835 17.7561 17.7221 14.2618 17.7241Z" fill="#161616"/>
<path d="M23.7459 24.101C23.5796 24.101 23.449 24.101 23.449 23.8961V19.6514C23.449 19.6012 23.4389 19.5635 23.4013 19.5635C23.3828 19.5635 23.3357 19.5959 23.2707 19.6322C23.1465 19.7069 22.8987 19.818 22.6611 19.896V19.9938C22.8866 20.0619 22.9758 20.0738 22.9758 20.4736V23.8961C22.9758 24.1003 22.8573 24.1003 22.6904 24.1003H22.5771V24.2589C22.7975 24.2537 23.0102 24.2464 23.2229 24.2464C23.4369 24.2464 23.6452 24.2589 23.8446 24.2589V24.101H23.7459Z" fill="#161616"/>
<path d="M15.6962 7.27371V15.0419C17.2006 14.4411 18.2688 12.9315 18.2713 11.1575C18.2694 9.38481 17.2006 7.87254 15.6962 7.27371Z" fill="#161616"/>
<path d="M28.4388 21.4512C28.114 21.4512 27.7943 21.6852 27.558 21.8934V19.6501C27.558 19.5998 27.5446 19.5628 27.5095 19.5628C27.4917 19.5628 27.4439 19.5932 27.3796 19.6309C27.2554 19.7056 27.007 19.8166 26.7688 19.8953V19.9938C26.9949 20.0638 27.0841 20.0744 27.0841 20.4743V23.1168C27.0841 23.4916 27.0541 23.8472 27.0006 24.2113L27.1242 24.2788L27.3019 24.1367C27.4548 24.2054 27.6866 24.3528 28.1242 24.3528C28.9726 24.3528 29.5401 23.5471 29.5401 22.742C29.5401 22.0718 29.1267 21.4512 28.4388 21.4512ZM28.1675 24.1935C27.7707 24.1935 27.558 23.7996 27.558 23.5669V22.0731C27.7172 21.9304 27.9013 21.7836 28.1204 21.7836C28.5828 21.7836 29.0669 22.3375 29.0669 23.0005C29.0669 23.5471 28.8019 24.1935 28.1675 24.1935Z" fill="#161616"/>
<path d="M26.5452 24.0408C26.4459 24.0408 26.3796 24.0356 26.3796 23.9245V21.6555C26.3796 21.5861 26.3796 21.5451 26.3325 21.5451C26.2739 21.5451 25.9421 21.5933 25.4096 21.6303V21.7414C25.6223 21.8035 25.907 21.8703 25.907 21.9945V23.6482C25.658 23.8604 25.3905 24.0204 25.1905 24.0204C24.6752 24.0204 24.6752 23.4909 24.6745 23.3072V21.7242C24.6745 21.588 24.6745 21.5464 24.6083 21.5464C24.5312 21.5464 24.0573 21.5827 23.8446 21.588V21.7057C24.1765 21.7348 24.2 21.8888 24.2 22.05V23.6225C24.2 24.1367 24.5312 24.3528 24.851 24.3528C25.2726 24.3528 25.544 24.1367 25.8994 23.8379V24.3363L25.9293 24.3541C26.0427 24.3171 26.528 24.1876 26.7841 24.1631V24.0356C26.7057 24.0356 26.6172 24.0408 26.5452 24.0408Z" fill="#161616"/>
<path d="M15.6433 22.0533C15.6433 21.7909 15.8682 21.6488 16.1045 21.6488C16.4854 21.6488 16.6917 21.8702 16.7516 22.2569H16.8886L16.8478 21.6309C16.616 21.5073 16.3612 21.4518 16.172 21.4518C15.5217 21.4518 15.2548 21.894 15.2548 22.2384C15.2548 23.2265 16.544 22.9912 16.544 23.7182C16.544 23.9344 16.4128 24.1558 16.0631 24.1578C15.63 24.1578 15.3943 23.8121 15.3166 23.4069L15.2102 23.4386L15.2758 24.1452C15.4828 24.2668 15.7605 24.3534 15.9981 24.3534C16.7026 24.3534 17.0172 23.9225 17.0172 23.516C17.0172 22.5516 15.6433 22.7737 15.6433 22.0533Z" fill="#161616"/>
<path d="M3.74289 19.97C3.30467 19.97 2.96709 19.9839 2.71805 19.9839C2.48684 19.9839 2.25117 19.9839 2.01996 19.97V20.1293C2.2862 20.1359 2.56454 20.0982 2.56454 20.6508H2.56391V23.633C2.54735 24.0507 2.37474 24.0613 2.01996 24.1003V24.2576C2.2862 24.2523 2.54735 24.2457 2.81359 24.2457C3.0913 24.2484 3.37028 24.2576 3.67219 24.2576C5.76837 24.2576 6.11104 22.7295 6.11104 22.1208C6.11104 21.0322 5.27665 19.97 3.74289 19.97ZM3.76072 24.062C3.47091 24.062 3.1448 24.0065 3.1448 23.5339L3.14416 20.1921C3.25117 20.1835 3.36327 20.1676 3.60658 20.1676C4.74926 20.1676 5.46009 20.9971 5.46009 22.1459C5.46009 23.062 5.0397 24.062 3.76072 24.062Z" fill="#161616"/>
<path d="M2.95126 25.6846H2.98247V25.6139C2.83406 25.6139 2.64744 25.6278 2.49139 25.6278C2.33789 25.6278 2.15254 25.6152 2.02769 25.6139V25.6846H2.0589C2.17355 25.6846 2.31113 25.7058 2.31113 25.8909V27.6411C2.31113 27.8275 2.17355 27.8473 2.0589 27.8473H2.02769V27.918C2.15254 27.918 2.3347 27.9041 2.48693 27.9041C2.64426 27.9041 2.83024 27.9167 2.98247 27.918V27.8473H2.95126C2.83598 27.8473 2.6984 27.8268 2.6984 27.6411V25.8909C2.6984 25.7051 2.83598 25.6846 2.95126 25.6846Z" fill="#161616"/>
<path d="M7.48535 24.1029C7.31974 24.1029 7.18917 24.1029 7.18917 23.8987V21.5404C7.18917 21.4915 7.17706 21.4538 7.14777 21.4538C7.11783 21.4538 7.08216 21.4598 7.04012 21.4842C7.01719 21.5027 6.68598 21.6177 6.40764 21.7057V21.8035C6.62611 21.9244 6.71592 21.9621 6.71592 22.2324V23.898C6.71592 24.1023 6.59617 24.1023 6.4312 24.1023H6.31847V24.2609C6.53757 24.2543 6.75095 24.2483 6.96369 24.2483C7.17706 24.2483 7.38407 24.2576 7.58598 24.2616V24.1029H7.48535V24.1029Z" fill="#161616"/>
<path d="M14.7216 21.4525C14.3611 21.4525 14.1121 21.8465 13.9643 22.0851H13.9516V21.5312C13.9516 21.4704 13.9337 21.4525 13.8987 21.4525C13.8452 21.4525 13.6083 21.6112 13.1758 21.8022V21.8947C13.265 21.943 13.4834 21.9813 13.4834 22.1717V23.8961C13.4834 24.1017 13.365 24.1017 13.2 24.1017H13.0401V24.2603C13.2535 24.255 13.5013 24.2477 13.7446 24.2477C13.9994 24.2477 14.2471 24.255 14.5726 24.2603V24.1023H14.2414C14.0758 24.1023 13.9573 24.1023 13.9573 23.8974V22.4532C13.9573 22.0831 14.2885 21.9423 14.3904 21.9443C14.5974 21.9443 14.5974 22.0924 14.7815 22.0924C14.9471 22.0924 15.0599 21.943 15.0599 21.7777C15.0599 21.5557 14.8694 21.4525 14.7216 21.4525Z" fill="#161616"/>
<path d="M6.95157 19.9033C6.8038 19.9033 6.6624 20.0454 6.6624 20.1987C6.6624 20.3587 6.79807 20.5067 6.95157 20.5074C7.11208 20.5074 7.24265 20.3639 7.24265 20.1987C7.24265 20.0321 7.10571 19.9033 6.95157 19.9033Z" fill="#161616"/>
<path d="M12.8484 23.5709C12.6306 23.7969 12.3752 23.9813 12.049 23.9813C11.5764 23.9813 11.214 23.5028 11.1796 22.9192C11.1662 22.7116 11.1662 22.6184 11.1796 22.5629L12.8433 22.5642L12.8968 22.5259C12.9019 22.4896 12.9019 22.4532 12.9019 22.4149C12.8968 21.7645 12.3809 21.4505 11.9013 21.4505C11.4873 21.4505 10.7051 21.8068 10.7051 23.0111C10.7051 23.4037 10.8949 24.3508 11.8363 24.3508C12.3223 24.3508 12.6586 24.0309 12.9312 23.6561L12.8484 23.5709ZM11.8777 21.6488C12.2096 21.6488 12.3936 21.9006 12.3936 22.2133C12.3936 22.286 12.3764 22.3666 12.228 22.3666H11.1974C11.2688 21.9238 11.5172 21.6488 11.8777 21.6488Z" fill="#161616"/>
<path d="M10.2535 11.1575C10.2561 12.9295 11.3217 14.4398 12.8261 15.04V7.27371C11.3223 7.87452 10.2567 9.38547 10.2535 11.1575Z" fill="#161616"/>
<path d="M25.135 25.6278C24.9879 25.6278 24.8452 25.6152 24.7019 25.6146V25.684H24.7592C24.8573 25.6853 25.0529 25.7309 25.0529 26.0145L25.0503 27.2782L25.0427 27.2848L25.0312 27.2967L23.5981 25.6146C23.5025 25.6146 23.4076 25.6285 23.3108 25.6285C23.1924 25.6285 23.072 25.6159 22.9535 25.6146V25.684H22.9822C23.1318 25.6846 23.2885 25.8043 23.2885 26.0006V27.4097C23.2885 27.6754 23.2153 27.848 22.9841 27.8493L22.9516 27.8486V27.918C23.0911 27.918 23.2338 27.9048 23.3771 27.9048C23.5115 27.9048 23.6446 27.918 23.7777 27.918V27.8493H23.7376C23.4847 27.848 23.4204 27.7329 23.4204 27.4421V26.0264L25.093 27.9682H25.1987C25.186 27.8665 25.1834 27.7567 25.1834 27.6457V26.1235C25.1834 25.7217 25.3452 25.6846 25.4834 25.6833H25.5185V25.6139C25.3911 25.6146 25.2631 25.6278 25.135 25.6278Z" fill="#161616"/>
<path d="M9.89044 27.3607H9.87643V27.3627L9.87324 27.3759C9.77643 27.7514 9.62038 27.7712 9.23312 27.7738C9.02293 27.7725 8.8535 27.7738 8.8535 27.5703V26.8042H9.22611C9.44012 26.8069 9.4414 26.9186 9.46369 27.1215L9.46496 27.1373L9.57643 27.1149L9.58853 27.1109L9.58789 27.099C9.58216 26.9714 9.5777 26.8445 9.5777 26.7176C9.5777 26.5874 9.58216 26.4559 9.58789 26.327L9.58853 26.3131H9.47707H9.46496L9.46369 26.3263C9.44203 26.5055 9.40891 26.6059 9.22293 26.6079H8.8535V25.7612H9.28726C9.61974 25.7652 9.64713 25.9212 9.66624 26.1386L9.66751 26.1545L9.78089 26.1247L9.79108 26.1208V26.1076C9.78407 26.0117 9.78089 25.8868 9.78089 25.7705C9.78089 25.7064 9.78216 25.6469 9.78407 25.5966L9.78471 25.5828H9.77006C9.55095 25.5828 9.21719 25.5953 8.94586 25.5953C8.67643 25.5953 8.34076 25.5828 8.14458 25.5828H8.13057V25.6971V25.711H8.18981C8.307 25.7136 8.41274 25.7249 8.41337 25.8894V27.6397C8.41274 27.8036 8.307 27.8148 8.18981 27.8168H8.14458H8.13057V27.8307V27.9305V27.9444H8.14458C8.32802 27.9444 8.71146 27.9311 9.00063 27.9311C9.29044 27.9311 9.66114 27.9444 9.86751 27.9444H9.87898L9.88152 27.9325C9.91082 27.7553 9.94904 27.5789 9.99044 27.4017L9.99363 27.3878L9.89044 27.3607ZM9.86751 27.9338C9.66051 27.9338 9.29044 27.9199 9.00127 27.9199C8.71019 27.9199 8.32738 27.9338 8.14395 27.9338V27.8346H8.18917C8.30573 27.8346 8.42738 27.8188 8.42738 27.6436V25.8921C8.42738 25.7163 8.30573 25.7011 8.18917 25.7011H8.14395V25.6006C8.34012 25.6006 8.67579 25.6145 8.94649 25.6145C9.21719 25.6145 9.55095 25.6006 9.77006 25.6006C9.76496 25.7454 9.76751 25.9661 9.77834 26.1122L9.68025 26.1386C9.66433 25.9218 9.62611 25.7473 9.28726 25.7473H8.84012V26.6238H9.2242C9.41592 26.6238 9.4586 26.5101 9.47707 26.3283H9.57388C9.56751 26.4599 9.56433 26.5901 9.56433 26.7209C9.56433 26.8472 9.56751 26.9747 9.57388 27.1023L9.47707 27.1221C9.45796 26.9212 9.44904 26.7917 9.22611 26.7917H8.84012V27.5689C8.84012 27.7871 9.02611 27.7871 9.23312 27.7871C9.61974 27.7871 9.78981 27.76 9.88662 27.3799L9.97707 27.4024C9.93503 27.5795 9.89617 27.7553 9.86751 27.9338Z" fill="#161616"/>
<path d="M25.5331 25.5868C25.3987 25.5868 25.2669 25.6 25.135 25.6C24.986 25.6 24.8376 25.5868 24.6847 25.5868H24.6701V25.7012V25.715H24.7561C24.8503 25.7177 25.0223 25.7507 25.0236 26.0158V27.2452L23.6064 25.5914C23.4968 25.5862 23.4051 25.5987 23.3076 25.5987C23.1873 25.5987 23.0612 25.5862 22.9382 25.5862H22.9236V25.7005V25.7144H22.9796C23.1178 25.7144 23.2586 25.8228 23.2586 26.0006V27.4097C23.2561 27.6754 23.1943 27.8175 22.9815 27.8189H22.9376H22.9236V27.9339V27.9477H22.9376C23.0834 27.9477 23.2312 27.9339 23.3758 27.9339C23.5127 27.9339 23.6516 27.9477 23.7898 27.9477H23.8032V27.8327V27.8189H23.735C23.4924 27.8149 23.4503 27.7336 23.4465 27.4428V26.1037L25.0796 27.9947L25.2127 27.9986H25.2287L25.2255 27.9841C25.2102 27.8817 25.2076 27.7647 25.2076 27.6477V26.1255C25.2102 25.7316 25.3484 25.719 25.4803 25.715H25.5287H25.5465V25.7144V25.6007V25.5868H25.5331ZM25.5369 25.7012H25.4879C25.349 25.7005 25.1968 25.7269 25.1968 26.1248V27.647C25.1968 27.764 25.1994 27.8803 25.2166 27.9841H25.0936L23.435 26.0647V27.4428C23.435 27.7343 23.4898 27.8347 23.7389 27.8347H23.7936V27.9345C23.6554 27.9345 23.5159 27.9206 23.3796 27.9206C23.2338 27.9206 23.086 27.9345 22.9414 27.9345V27.8347H22.9854C23.2089 27.8347 23.2752 27.6781 23.2752 27.4104V26.0012C23.2752 25.8142 23.1293 25.7005 22.9828 25.7005H22.9414V25.6C23.0624 25.6 23.1898 25.6139 23.3108 25.6139C23.4083 25.6139 23.5013 25.6 23.5975 25.6L25.0318 27.2756L25.0363 27.2709L25.0389 27.2689V26.0158C25.0389 25.7408 24.8561 25.7012 24.7586 25.7012H24.6904V25.6014C24.8408 25.6014 24.9892 25.6152 25.1408 25.6152C25.2726 25.6152 25.4045 25.6014 25.5369 25.6014V25.7012Z" fill="#161616"/>
<path d="M21.6166 25.6965C21.0529 25.6965 20.8866 26.2193 20.8866 26.6661C20.8866 27.2643 21.1503 27.8367 21.672 27.8367C22.2975 27.8367 22.4057 27.2643 22.4057 26.7765C22.407 26.2887 22.1535 25.6965 21.6166 25.6965ZM21.6726 27.8221C21.1624 27.8215 20.9013 27.261 20.9 26.6655C20.9026 26.22 21.065 25.7124 21.6166 25.711C22.1414 25.7124 22.3936 26.292 22.3936 26.7758C22.3924 27.2643 22.2866 27.8221 21.6726 27.8221Z" fill="#161616"/>
<path d="M21.6249 25.5636C20.9618 25.5636 20.4484 26.097 20.4484 26.7851C20.4497 27.4949 20.9656 27.9702 21.6414 27.9702C22.3198 27.9702 22.844 27.4639 22.8465 26.7038C22.8452 26.0005 22.3045 25.565 21.6249 25.5636ZM21.6726 27.8512C21.1376 27.8505 20.8739 27.2682 20.8726 26.6661C20.8739 26.2153 21.044 25.6839 21.6166 25.6839C22.165 25.6839 22.4198 26.2861 22.421 26.7771C22.421 27.2643 22.3102 27.8512 21.6726 27.8512Z" fill="#161616"/>
<path d="M26.5197 25.9741H26.5146L26.5134 25.9754L26.2146 26.9219H26.8172L26.5197 25.9741ZM26.5166 26.0098L26.7955 26.9047H26.2331L26.5166 26.0098Z" fill="#161616"/>
<path d="M21.6248 25.5353C20.9484 25.5359 20.4223 26.0806 20.421 26.7851C20.4223 27.5122 20.9509 27.9973 21.6401 28C22.3318 27.9973 22.8726 27.4811 22.8726 26.7038C22.8713 25.9821 22.3159 25.5359 21.6248 25.5353ZM21.6401 27.9841C20.9567 27.9841 20.435 27.5023 20.435 26.7845C20.435 26.0878 20.9522 25.5505 21.6229 25.5505C22.3095 25.5505 22.8573 25.992 22.8573 26.7032C22.8586 27.4739 22.3274 27.9841 21.6401 27.9841Z" fill="#161616"/>
<path d="M29.6057 27.3522L29.5962 27.3509L29.5924 27.3635C29.5752 27.4349 29.5465 27.5287 29.4968 27.5988C29.4408 27.6787 29.3274 27.7567 29.1956 27.7726C29.1134 27.7832 29.0312 27.7865 28.9516 27.7865C28.8885 27.7865 28.8312 27.7838 28.7739 27.7799C28.6733 27.7647 28.5949 27.7323 28.5936 27.606V25.8823C28.5962 25.7131 28.6745 25.7197 28.7987 25.7157H28.8796H28.893V25.6007V25.5868H28.8796C28.714 25.5868 28.5522 25.6 28.3892 25.6C28.2178 25.6 28.0497 25.5868 27.8784 25.5868H27.865V25.7012V25.715H27.9236C28.0421 25.7164 28.151 25.7289 28.1522 25.8915V27.612C28.151 27.8096 28.0395 27.8182 27.9236 27.8195H27.879H27.8656V27.9345V27.9484H27.879C28.1624 27.9484 28.4478 27.9345 28.7299 27.9345C29.0134 27.9345 29.2975 27.9484 29.5796 27.9484H29.5911L29.5936 27.9365C29.6331 27.7462 29.6777 27.5611 29.714 27.3688L29.7166 27.3522H29.6057V27.3522ZM29.5796 27.9339C29.2981 27.9339 29.0134 27.92 28.7312 27.92C28.4471 27.92 28.1637 27.9339 27.8803 27.9339V27.8347H27.9236C28.0408 27.8347 28.1675 27.8189 28.1675 27.6093V25.8909C28.1675 25.7144 28.0408 25.6998 27.9236 25.6998H27.8803V25.6C28.0516 25.6 28.2185 25.6133 28.3898 25.6133C28.5542 25.6133 28.7147 25.6 28.8803 25.6V25.6998H28.7981C28.6777 25.6998 28.5803 25.7032 28.5803 25.8796V27.6041C28.5803 27.7382 28.6701 27.7786 28.7733 27.7918C28.9051 27.8017 29.051 27.8017 29.1987 27.7845C29.3344 27.768 29.4503 27.688 29.507 27.6047C29.558 27.532 29.5866 27.4368 29.6057 27.3641H29.6987C29.665 27.5565 29.6198 27.7429 29.5796 27.9339Z" fill="#161616"/>
<path d="M27.7484 27.8493C27.6388 27.8493 27.5618 27.8044 27.5223 27.7059C27.4815 27.6041 27.4414 27.4792 27.4032 27.3615L26.8095 25.6126C26.7987 25.5868 26.7911 25.5551 26.7822 25.5333C26.779 25.528 26.7802 25.528 26.7764 25.528H26.7713C26.7637 25.528 26.7599 25.5313 26.7529 25.5333C26.6904 25.5743 26.5611 25.6417 26.4662 25.6675C26.4465 25.7937 26.3879 25.9603 26.3465 26.0845L25.8293 27.6193C25.7809 27.7647 25.6688 27.848 25.5369 27.848H25.5312V27.9174C25.6427 27.9101 25.7535 27.9035 25.8656 27.9035C25.9898 27.9035 26.1178 27.9108 26.2414 27.9174V27.848H26.2191C26.1146 27.846 25.9675 27.8341 25.965 27.7151C25.965 27.649 26.0051 27.5638 26.035 27.4507L26.1408 27.0918H26.893L27.0236 27.4911C27.0586 27.5988 27.0892 27.6874 27.0892 27.7363C27.0834 27.8381 26.9478 27.8467 26.8752 27.8493H26.8535V27.918H26.8548C27.014 27.9114 27.1707 27.9042 27.3229 27.9042C27.472 27.9042 27.6127 27.9114 27.7541 27.918V27.8493H27.7484V27.8493ZM26.1949 26.9352L26.5032 25.9596H26.5134H26.521H26.5325L26.8376 26.9352H26.1949Z" fill="#161616"/>
<path d="M29.6624 25.5055C29.4675 25.5055 29.3229 25.6589 29.3229 25.8578C29.3229 26.0554 29.4688 26.2075 29.6624 26.2075C29.8554 26.2075 30 26.0554 30 25.8578C30 25.6602 29.8535 25.5055 29.6624 25.5055ZM29.6624 26.1433C29.5096 26.1433 29.3917 26.0085 29.3917 25.8565C29.3917 25.7051 29.5096 25.5696 29.6624 25.5696C29.8146 25.5696 29.9299 25.7045 29.9299 25.8565C29.9299 26.0085 29.8127 26.1433 29.6624 26.1433Z" fill="#161616"/>
<path d="M29.7599 25.9477L29.7019 25.8684C29.7478 25.8545 29.7815 25.8148 29.7815 25.762C29.7815 25.6978 29.728 25.6688 29.6669 25.6688H29.4943V25.6859C29.5376 25.6833 29.5427 25.6972 29.5427 25.7322V25.9933C29.5427 26.0204 29.5338 26.0191 29.493 26.0263V26.0422H29.6573V26.0263C29.6153 26.0191 29.6064 26.0204 29.6064 25.9986V25.8796H29.6452C29.7083 25.9741 29.737 26.0422 29.7669 26.0422H29.8331V26.031C29.8147 26.0184 29.7847 25.9854 29.7599 25.9477ZM29.6471 25.8578H29.6064V25.6912H29.6452C29.6822 25.6912 29.7121 25.7117 29.7121 25.7686C29.7115 25.8254 29.6911 25.8578 29.6471 25.8578Z" fill="#161616"/>
<path d="M27.7478 27.8156C27.6459 27.8169 27.5853 27.7799 27.5484 27.6933C27.5076 27.5942 27.4688 27.4713 27.4287 27.3523L26.8363 25.6034C26.8248 25.575 26.8166 25.5452 26.8064 25.5181C26.7962 25.5016 26.7803 25.499 26.7713 25.499C26.758 25.499 26.7478 25.5043 26.7414 25.5076C26.6771 25.5485 26.5478 25.6153 26.4471 25.6523C26.4185 25.7845 26.3599 25.9504 26.321 26.0753L25.8038 27.6101C25.7567 27.7449 25.6567 27.8163 25.5363 27.8163H25.5178H25.5045V27.9313V27.9452H25.5178C25.6357 27.9386 25.7503 27.9313 25.8656 27.9313C25.993 27.9313 26.1261 27.9386 26.2541 27.9452H26.2675V27.8308V27.8176H26.2191C26.1121 27.8176 25.9936 27.7978 25.9936 27.7151C25.9924 27.6616 26.0306 27.5737 26.0624 27.4587L26.1618 27.1203H26.8732L26.9949 27.4984C27.0312 27.6048 27.0611 27.696 27.0599 27.733C27.0599 27.7978 26.9478 27.8156 26.8732 27.8156H26.8408H26.8261V27.9306V27.9458L26.8408 27.9452C27.0038 27.9392 27.1656 27.9313 27.3236 27.9313C27.4777 27.9313 27.6223 27.9392 27.7662 27.9452L27.7809 27.9465V27.8302V27.8163H27.7478V27.8156ZM27.7688 27.9339C27.6229 27.9273 27.4777 27.92 27.3236 27.92C27.1656 27.92 27.0051 27.9273 26.8408 27.9339V27.8348H26.8758C26.949 27.8348 27.0758 27.8209 27.0758 27.7376C27.0758 27.6947 27.0459 27.6054 27.0096 27.4977L26.8841 27.1097H26.1541L26.0497 27.458C26.0185 27.5704 25.9803 27.659 25.9803 27.7185C25.9803 27.8196 26.1159 27.8354 26.2217 27.8354H26.2586V27.9359C26.1293 27.9293 25.9974 27.9227 25.8688 27.9227C25.7522 27.9227 25.6376 27.9286 25.521 27.9359V27.8354H25.5395C25.6656 27.8354 25.7713 27.7581 25.8197 27.6173L26.3357 26.0846C26.3771 25.9603 26.4357 25.7951 26.4548 25.6688C26.558 25.6318 26.6866 25.5664 26.7484 25.5247C26.7599 25.5221 26.7637 25.5181 26.7745 25.5181C26.7847 25.5181 26.7898 25.5181 26.7968 25.5287C26.807 25.5558 26.8172 25.5862 26.8267 25.6113L27.4191 27.3602C27.458 27.4779 27.4962 27.6001 27.5395 27.7026C27.5783 27.7971 27.6446 27.8354 27.7503 27.8354H27.7701L27.7688 27.9339Z" fill="#161616"/>
<path d="M29.6172 27.38C29.5975 27.4521 29.5688 27.5426 29.5178 27.616C29.458 27.6999 29.3382 27.7825 29.2007 27.8017C29.114 27.811 29.0306 27.8156 28.9522 27.8156C28.8898 27.8156 28.83 27.811 28.7707 27.807C28.6669 27.7951 28.565 27.7488 28.565 27.6054V25.881C28.565 25.6959 28.6784 25.6847 28.7981 25.6847H28.865V25.6146C28.7057 25.6153 28.5491 25.6285 28.3898 25.6285C28.2242 25.6285 28.0599 25.6159 27.8936 25.6146V25.6847H27.9255C28.0389 25.6847 28.1809 25.7071 28.1809 25.8909V27.6113C28.1809 27.8262 28.0414 27.8486 27.9255 27.8486H27.8936V27.9193C28.1733 27.9193 28.451 27.9055 28.7306 27.9055C29.0115 27.9055 29.2898 27.9193 29.5688 27.9193C29.6064 27.7382 29.6497 27.5605 29.6835 27.38H29.6172Z" fill="#161616"/>
<path d="M20.2943 27.8176C20.1764 27.8156 20.0707 27.8057 20.0688 27.6418V25.8902C20.0701 25.727 20.1758 25.7144 20.2943 25.7131H20.3382H20.3516V25.5968V25.5836H20.3382C20.1879 25.5855 19.9936 25.5974 19.8331 25.5974C19.6764 25.5974 19.4822 25.5842 19.3567 25.5842H19.3433V25.6992V25.7131H19.4032C19.5197 25.7144 19.6268 25.727 19.628 25.8909V27.6418C19.6268 27.8057 19.5197 27.8169 19.4032 27.8183H19.3567H19.3433V27.8321V27.9326V27.9465H19.3567C19.4822 27.9465 19.6739 27.9326 19.8319 27.9326C19.9924 27.9326 20.1841 27.9465 20.3395 27.9465H20.3529V27.8315V27.8176H20.2943ZM20.3389 27.9326C20.1847 27.9326 19.9917 27.9194 19.8312 27.9194C19.6733 27.9194 19.4822 27.9326 19.3561 27.9326V27.8321H19.4013C19.5178 27.8321 19.6389 27.8176 19.6389 27.6411V25.8909C19.6389 25.7151 19.5178 25.6999 19.4013 25.6999H19.3567V25.6007C19.4822 25.6007 19.6752 25.614 19.8331 25.614C19.9962 25.614 20.1904 25.6007 20.3395 25.6007L20.3389 25.6999H20.2949C20.1783 25.6999 20.0561 25.7151 20.0561 25.8909V27.6411C20.0561 27.8169 20.1783 27.8321 20.2949 27.8321H20.3389V27.9326V27.9326Z" fill="#161616"/>
<path d="M15.0147 25.5862C14.8822 25.5862 14.7503 25.6001 14.6185 25.6001C14.4682 25.6001 14.3198 25.5862 14.1675 25.5862H14.1535V25.7012V25.7151H14.2382C14.3319 25.7164 14.5038 25.7508 14.5045 26.0158V27.2452L13.0879 25.5902C12.9809 25.5855 12.8867 25.5988 12.7924 25.5988C12.6707 25.5988 12.5452 25.5855 12.4223 25.5855H12.4077V25.7005V25.7144H12.4631C12.6019 25.7144 12.7421 25.8228 12.7421 26.0006V27.4085C12.7402 27.6755 12.679 27.8182 12.4669 27.8189H12.4223H12.4077V27.9339V27.9478H12.4223C12.5669 27.9478 12.7159 27.9339 12.8599 27.9339C12.9981 27.9339 13.1357 27.9478 13.2752 27.9478H13.2892V27.8328V27.8189H13.2217C12.9784 27.8149 12.9351 27.7336 12.9319 27.4428V26.1037L14.5669 27.9947L14.6994 28H14.7153L14.7134 27.9848C14.6962 27.8817 14.6937 27.7654 14.6937 27.6477V26.1269C14.6968 25.7316 14.8338 25.7204 14.9669 25.7164H15.0147H15.0287V25.7144V25.6007V25.5862H15.0147V25.5862ZM15.0159 25.6999H14.9675C14.8319 25.7005 14.6803 25.727 14.6803 26.1249V27.6471C14.6803 27.7641 14.6828 27.8804 14.6988 27.9842H14.5758L12.9172 26.0641V27.4422C12.9172 27.7336 12.972 27.8348 13.221 27.8348H13.2745V27.9339C13.137 27.9339 12.9981 27.92 12.8599 27.92C12.714 27.92 12.5663 27.9339 12.4217 27.9339V27.8348H12.4663C12.6892 27.8348 12.7561 27.6775 12.7561 27.4098V26.0006C12.7561 25.8136 12.6083 25.6999 12.4631 25.6999H12.4223V25.6001C12.5433 25.6001 12.6707 25.6133 12.7924 25.6133C12.8879 25.6133 12.9828 25.6001 13.079 25.6001L14.5128 27.2749H14.5134L14.5159 27.2703L14.5179 27.2683V26.0152C14.5179 25.7402 14.3351 25.6999 14.2382 25.6999H14.1682V25.6007C14.3198 25.6007 14.4675 25.614 14.6191 25.614C14.7516 25.614 14.8828 25.6007 15.0159 25.6007V25.6999Z" fill="#161616"/>
<path d="M14.6185 25.6278C14.4707 25.6278 14.328 25.6152 14.1815 25.6139V25.6833H14.2382C14.3382 25.6846 14.5331 25.7296 14.5331 26.0138L14.5287 27.2775L14.5229 27.2842L14.5127 27.2961L13.079 25.6139C12.9828 25.6139 12.8898 25.6278 12.7924 25.6278C12.6733 25.6278 12.5529 25.6152 12.435 25.6139V25.6833H12.4631C12.6153 25.684 12.7701 25.8036 12.7701 25.9999V27.4078C12.7701 27.6748 12.6968 27.8473 12.4662 27.8486L12.4344 27.848V27.9174C12.5739 27.9174 12.7172 27.9035 12.8592 27.9035C12.9949 27.9035 13.128 27.9174 13.2612 27.9174V27.848H13.2217C12.9669 27.8466 12.9045 27.7316 12.9032 27.4408V26.0264L14.5764 27.9682H14.6828C14.6682 27.8665 14.6662 27.7567 14.6662 27.6457V26.1235C14.6662 25.7236 14.828 25.6846 14.9669 25.6833H15.0006V25.6139C14.8733 25.6146 14.7465 25.6278 14.6185 25.6278Z" fill="#161616"/>
<path d="M12.0013 27.6417L11.4401 26.7706L11.456 26.764C11.7076 26.6622 11.8949 26.4824 11.8949 26.1883C11.8949 25.725 11.5471 25.6166 11.142 25.6146C10.972 25.6146 10.8172 25.6285 10.6235 25.6285C10.4344 25.6285 10.2427 25.6159 10.1376 25.6146V25.686H10.1815C10.2821 25.686 10.4242 25.7025 10.4242 25.9537V27.6523C10.4242 27.7865 10.3038 27.8486 10.1815 27.8486H10.1376V27.9174C10.2923 27.9174 10.4395 27.9035 10.5904 27.9035C10.7713 27.9035 10.9528 27.9174 11.1306 27.9174V27.8486H11.0872C10.9407 27.8486 10.8083 27.8301 10.8083 27.5638V26.8341H10.8229H11.0433L11.0465 26.842C11.2573 27.2267 11.4688 27.5882 11.7063 27.9187C11.8044 27.9187 11.907 27.9048 12.0076 27.9048C12.1108 27.9048 12.2095 27.916 12.3102 27.9187V27.8466C12.1599 27.8262 12.0891 27.7799 12.0013 27.6417ZM10.9815 26.7442H10.8235H10.8089V25.7197L10.8223 25.7184C10.8656 25.7144 10.9095 25.7051 11.007 25.7051C11.3006 25.7051 11.4917 25.9041 11.4917 26.2075C11.4904 26.6087 11.3057 26.7442 10.9815 26.7442Z" fill="#161616"/>
<path d="M12.3261 27.8156C12.1701 27.7977 12.114 27.764 12.0242 27.6245L11.4828 26.7845C11.7312 26.6787 11.9236 26.4903 11.9236 26.1883C11.9229 25.7031 11.5491 25.5875 11.142 25.5862C10.9701 25.5862 10.8159 25.6 10.6236 25.6C10.4274 25.6 10.228 25.5862 10.1242 25.5862H10.1102V25.7012V25.7157H10.1815C10.2822 25.7183 10.3936 25.717 10.3962 25.9536V27.6523C10.3955 27.7653 10.2987 27.8175 10.1815 27.8175H10.1242H10.1102V27.9325V27.9464H10.1242C10.2854 27.9464 10.4363 27.9325 10.5905 27.9325C10.7733 27.9325 10.9612 27.9464 11.1446 27.9464H11.1592V27.8314V27.8175H11.0873C10.9382 27.8129 10.8408 27.8162 10.837 27.5637V26.8625H11.0274C11.2357 27.2445 11.4471 27.6034 11.6943 27.9405C11.8064 27.9458 11.9096 27.9319 12.0077 27.9319C12.1134 27.9319 12.2166 27.9458 12.3242 27.9458H12.3376V27.8308V27.8175L12.3261 27.8156ZM12.3248 27.9339C12.2191 27.9339 12.1153 27.92 12.0096 27.92C11.9096 27.92 11.8057 27.9339 11.7057 27.9339C11.458 27.5948 11.2446 27.2339 11.0357 26.8479H10.8236V27.5644C10.8236 27.8235 10.9389 27.8327 11.0879 27.8327H11.1459V27.9325C10.9612 27.9325 10.7752 27.9187 10.5917 27.9187C10.437 27.9187 10.2854 27.9325 10.1248 27.9325V27.8327H10.1822C10.3026 27.8327 10.4115 27.7759 10.4115 27.653V25.9543C10.4115 25.7124 10.2822 25.7005 10.1822 25.7005H10.1248V25.6014C10.228 25.6014 10.4274 25.6146 10.6242 25.6146C10.8172 25.6146 10.972 25.6014 11.1427 25.6014C11.5484 25.6014 11.9102 25.715 11.9102 26.1903C11.9102 26.4897 11.7172 26.6741 11.4618 26.7785L12.0121 27.6338C12.1026 27.7759 12.1669 27.8156 12.3248 27.8354V27.9339Z" fill="#161616"/>
<path d="M20.2943 25.6846H20.3242V25.6139C20.1764 25.6146 19.9898 25.6278 19.8331 25.6278C19.679 25.6278 19.4949 25.6152 19.3713 25.6139V25.6846H19.4013C19.5166 25.6846 19.6535 25.7058 19.6535 25.8909V27.6411C19.6535 27.8261 19.5172 27.8473 19.4013 27.8473H19.3713V27.9167C19.4949 27.9154 19.6764 27.9035 19.8306 27.9035C19.986 27.9035 20.1726 27.9167 20.3242 27.9167V27.8473H20.2943C20.1777 27.8466 20.042 27.8255 20.042 27.6411V25.8909C20.042 25.7051 20.1764 25.6846 20.2943 25.6846Z" fill="#161616"/>
<path d="M10.7306 24.101H10.6236C10.4573 24.101 10.328 24.101 10.328 23.8961V22.3111C10.328 21.8319 10.1503 21.4512 9.64716 21.4512C9.25034 21.4512 8.9599 21.6601 8.62168 21.9119V21.5127C8.62168 21.4631 8.60384 21.4505 8.58728 21.4505C8.30193 21.5794 8.0599 21.6594 7.80512 21.746V21.8623C8.08283 21.978 8.14907 22.0394 8.14907 22.2675H8.14843V23.8954C8.14843 24.1003 8.0306 24.1003 7.86499 24.1003H7.75862V24.2583C7.97136 24.2517 8.18474 24.2457 8.39747 24.2457C8.61085 24.2457 8.81849 24.2583 9.0255 24.2583V24.1003H8.91913C8.75353 24.1003 8.62168 24.1003 8.62168 23.8954V22.0765C8.81849 21.9423 9.1204 21.781 9.30894 21.781C9.64716 21.781 9.85353 21.9548 9.85353 22.3051V23.8954C9.85353 24.101 9.73569 24.101 9.57009 24.101H9.46372V24.2583C9.67518 24.253 9.88919 24.2464 10.1026 24.2464C10.3159 24.2464 10.5223 24.2583 10.7306 24.2583C10.7306 24.2576 10.7306 24.101 10.7306 24.101Z" fill="#161616"/>
<path d="M11.007 25.719C10.9108 25.719 10.8688 25.7302 10.8235 25.7329V26.7296H10.9815C11.3038 26.7296 11.4771 26.6034 11.4771 26.2081C11.4764 25.9093 11.2936 25.719 11.007 25.719ZM10.9815 26.7151H10.8376V25.7454C10.879 25.7415 10.9197 25.7322 11.007 25.7322C11.2872 25.7349 11.4624 25.9153 11.4643 26.2074C11.4618 26.5961 11.3 26.7104 10.9815 26.7151Z" fill="#161616"/>
<path d="M19.1643 25.4843L19.1471 25.479L19.1459 25.4936C19.1408 25.5815 19.0771 25.5828 18.9866 25.5848H17.3242H17.3096C17.2261 25.5828 17.1675 25.5815 17.1452 25.4975L17.1414 25.487H17.0535H17.0401V25.5008C17.0401 25.5973 17.0325 25.6905 17.021 25.7831C17.0102 25.8796 16.9949 25.9734 16.9815 26.0679L16.9803 26.0845H17.0924H17.1045L17.107 26.0726C17.1605 25.8247 17.1542 25.7831 17.393 25.7798H17.9077L17.9089 27.5511C17.9032 27.8109 17.8331 27.8129 17.6554 27.8168H17.5943H17.5796V27.9318V27.9457H17.5943C17.7198 27.9457 17.9465 27.9318 18.1382 27.9318C18.3108 27.9318 18.5363 27.9457 18.6631 27.9457H18.6752V27.8307V27.8175H18.5994C18.4465 27.8135 18.3484 27.797 18.3472 27.5445V25.7804H18.8624C19.065 25.7804 19.079 25.9622 19.0873 26.0878L19.0886 26.1069L19.2019 26.064L19.2115 26.06V26.0501C19.2115 25.9609 19.2115 25.8703 19.2179 25.7818C19.228 25.6912 19.2401 25.6026 19.2529 25.5121L19.2567 25.4982L19.1643 25.4843ZM19.2019 25.7804C19.1956 25.8716 19.1956 25.9609 19.1956 26.0501L19.0994 26.0884C19.0924 25.9648 19.0771 25.7679 18.8618 25.7679H18.3319V27.5458C18.3319 27.8049 18.4452 27.8347 18.5994 27.8347H18.6593V27.9345C18.5363 27.9345 18.3096 27.9206 18.1357 27.9206C17.9427 27.9206 17.7166 27.9345 17.5917 27.9345V27.8347H17.6529C17.8306 27.8347 17.921 27.8188 17.921 27.5538V25.7679H17.3924C17.151 25.7679 17.1401 25.8287 17.0917 26.0726H16.9956C17.0089 25.9774 17.0255 25.8855 17.035 25.7864C17.0484 25.6925 17.0542 25.6 17.0542 25.5022H17.1325C17.1573 25.602 17.2382 25.5987 17.3249 25.5987H18.9873C19.0752 25.5987 19.1548 25.5954 19.1605 25.4956L19.2376 25.5094C19.2242 25.6007 19.2134 25.6886 19.2019 25.7804Z" fill="#161616"/>
<path d="M19.172 25.5128C19.158 25.6099 19.0663 25.6159 18.9835 25.6159H17.3217H17.3057C17.2306 25.6166 17.1478 25.6126 17.1178 25.5194H17.0656C17.0643 25.6106 17.0599 25.7012 17.0465 25.7897C17.0382 25.8803 17.0217 25.9702 17.0096 26.0574H17.0777C17.1198 25.8248 17.1484 25.7487 17.3885 25.7527H17.9293V27.5545C17.9293 27.8222 17.8261 27.8486 17.6484 27.8493H17.6019V27.9187C17.7293 27.9173 17.9465 27.9048 18.1331 27.9048C18.3019 27.9048 18.5172 27.9173 18.6433 27.9187V27.8486H18.5968C18.4427 27.8479 18.3172 27.8076 18.3172 27.5459V25.7521H18.8599C19.0764 25.7527 19.1051 25.9444 19.1102 26.0687L19.1809 26.0416C19.1809 25.955 19.1809 25.8671 19.1873 25.7798C19.1968 25.6932 19.2083 25.608 19.2217 25.5214L19.172 25.5128Z" fill="#161616"/>
<path d="M22.235 23.0944C22.1166 23.7381 21.6306 24.1565 21.0459 24.1565C20.1344 24.1565 19.2809 23.2655 19.2809 22.0236C19.2809 20.549 20.2688 20.0758 20.9503 20.0758C21.6134 20.0758 22.1032 20.3633 22.2166 21.0837H22.3631L22.3045 20.2047C21.8484 20.0394 21.3854 19.8781 20.9064 19.8781C19.7459 19.8781 18.6631 20.7817 18.6631 22.0408C18.6631 23.4242 19.5401 24.3522 20.9248 24.3522C21.3172 24.3528 21.986 24.1869 22.235 24.027L22.3707 23.1307L22.235 23.0944Z" fill="#161616"/>
<path d="M17.2286 27.8149C17.128 27.8182 17.0688 27.7812 17.0318 27.6946C16.9911 27.5955 16.9522 27.4725 16.9127 27.3536L16.3185 25.6047C16.3076 25.5763 16.2993 25.5465 16.2898 25.5194C16.279 25.5029 16.2624 25.5002 16.2541 25.5002C16.2407 25.5002 16.2325 25.5055 16.2229 25.5088C16.1599 25.5498 16.0306 25.6172 15.9306 25.6523C15.9032 25.7858 15.8446 25.9517 15.8025 26.0766L15.286 27.6113C15.2388 27.7482 15.1395 27.8176 15.0197 27.8176H15.0006H14.9872V27.9326V27.9464H15.0025C15.1178 27.9398 15.2331 27.9326 15.3497 27.9326C15.4783 27.9326 15.6102 27.9398 15.7382 27.9464H15.7522V27.8314V27.8176H15.7032C15.5962 27.8176 15.4764 27.7977 15.4751 27.7158C15.4751 27.6616 15.514 27.573 15.5465 27.4587L15.6458 27.1202H16.356L16.479 27.4983C16.5153 27.6041 16.5452 27.6959 16.5427 27.733C16.5427 27.7977 16.4331 27.8156 16.3573 27.8156H16.321H16.3076V27.9306V27.9458L16.3216 27.9445C16.4872 27.9385 16.6465 27.9306 16.8044 27.9306C16.9573 27.9306 17.1044 27.9385 17.2471 27.9445L17.2611 27.9458V27.8288V27.8149H17.2286V27.8149ZM17.2497 27.9339H17.249C17.1038 27.9273 16.9605 27.92 16.8064 27.92C16.6484 27.92 16.4866 27.9273 16.3223 27.9339V27.8347H16.3586C16.4331 27.8347 16.5573 27.8209 16.5573 27.7376C16.5573 27.6946 16.5286 27.6054 16.493 27.4977L16.3669 27.1097H15.6363L15.5337 27.458C15.5013 27.5704 15.4624 27.6589 15.4624 27.7184C15.4624 27.8195 15.5981 27.8354 15.7038 27.8354H15.7401V27.9359C15.6102 27.9293 15.479 27.9227 15.349 27.9227C15.2331 27.9227 15.1178 27.9286 15.0019 27.9359V27.8354H15.021C15.1465 27.8354 15.2541 27.7581 15.3006 27.6173L15.8165 26.0845C15.8586 25.9603 15.9172 25.795 15.9363 25.6688C16.0388 25.6318 16.1675 25.5663 16.228 25.5247C16.2382 25.5221 16.2427 25.5181 16.2541 25.5181C16.2643 25.5181 16.27 25.5181 16.2771 25.5287C16.2866 25.5558 16.2962 25.5862 16.3064 25.6113L16.9 27.3602C16.9388 27.4778 16.9758 27.6001 17.0197 27.7026C17.0586 27.7971 17.1255 27.8354 17.2325 27.8354H17.2497V27.9339V27.9339Z" fill="#161616"/>
<path d="M17.2318 27.8493C17.121 27.8493 17.0452 27.8044 17.0057 27.7059C16.9637 27.6041 16.9248 27.4792 16.886 27.3615L16.293 25.6126C16.2822 25.5868 16.2739 25.5551 16.2643 25.532C16.263 25.528 16.263 25.528 16.2592 25.528H16.2548C16.2478 25.528 16.2427 25.5313 16.2369 25.5333C16.1745 25.5743 16.0446 25.641 15.9497 25.6675C15.9293 25.7937 15.8713 25.9603 15.8293 26.0845L15.314 27.6193C15.265 27.7647 15.1522 27.848 15.021 27.848H15.0159V27.9174C15.1261 27.9101 15.2376 27.9035 15.3503 27.9035C15.4752 27.9035 15.6019 27.9108 15.7248 27.9174V27.848H15.7038C15.5994 27.846 15.4522 27.8341 15.4484 27.7158C15.449 27.649 15.4885 27.5631 15.5204 27.4507L15.6261 27.0918H16.3758L16.5064 27.4911C16.5427 27.5988 16.5726 27.6874 16.5726 27.7363C16.5688 27.8381 16.4318 27.8467 16.3586 27.8493H16.3376V27.918C16.4968 27.9114 16.6535 27.9042 16.8064 27.9042C16.9554 27.9042 17.0962 27.9114 17.2369 27.918V27.8493H17.2318ZM15.6777 26.9352L15.986 25.9596H15.9962H16.0032H16.0127L16.3197 26.9352H15.6777Z" fill="#161616"/>
<path d="M16.0038 25.9741H15.9968V25.9761L15.6981 26.9219H16.3L16.0038 25.9741ZM16 26.0098L16.2796 26.9047H15.7166L16 26.0098Z" fill="#161616"/>
</svg>
