<svg width="32" height="32" viewBox="0 0 32 32" fill="none" xmlns="http://www.w3.org/2000/svg">
<path fill-rule="evenodd" clip-rule="evenodd" d="M16 2C8.22222 2 2 8.22222 2 16C2 23.7778 8.22222 30 16 30C23.7778 30 30 23.7778 30 16C30 8.22222 23.7778 2 16 2ZM14.7556 8.22222H17.0889V19.1111H14.7556V8.22222ZM16 25.3333C15.0667 25.3333 14.4444 24.7111 14.4444 23.7778C14.4444 22.8444 15.0667 22.2222 16 22.2222C16.9333 22.2222 17.5556 22.8444 17.5556 23.7778C17.5556 24.7111 16.9333 25.3333 16 25.3333Z" fill="#161616"/>
<path opacity="0.01" fill-rule="evenodd" clip-rule="evenodd" d="M15.2 11H16.7V18H15.2V11ZM16 22C15.4 22 15 21.6 15 21C15 20.4 15.4 20 16 20C16.6 20 17 20.4 17 21C17 21.6 16.6 22 16 22Z" fill="#161616"/>
</svg>
