<svg width="32" height="32" viewBox="0 0 32 32" fill="none" xmlns="http://www.w3.org/2000/svg">
<path fill-rule="evenodd" clip-rule="evenodd" d="M22.45 6.00001C23.9208 5.99876 25.3301 6.5899 26.36 7.64001C28.5456 9.85884 28.5456 13.4212 26.36 15.64L16 26.13L5.63999 15.64C3.45437 13.4212 3.45437 9.85884 5.63999 7.64001C6.6704 6.59069 8.07934 5.99958 9.54999 5.99958C11.0206 5.99958 12.4296 6.59069 13.46 7.64001L16 10.24L18.53 7.66001C19.5569 6.59716 20.9721 5.99788 22.45 6.00001ZM22.45 4.00001C20.4412 3.9983 18.5164 4.80571 17.11 6.24001L16 7.36001L14.89 6.24001C13.4819 4.80839 11.558 4.0021 9.54999 4.0021C7.54197 4.0021 5.61804 4.80839 4.20999 6.24001C1.25972 9.24334 1.25972 14.0567 4.20999 17.06L16 29L27.79 17.06C30.7403 14.0567 30.7403 9.24334 27.79 6.24001C26.3823 4.80762 24.4583 4.00056 22.45 4.00001Z" fill="#161616"/>
</svg>
