<svg width="32" height="32" viewBox="0 0 32 32" fill="none" xmlns="http://www.w3.org/2000/svg">
<path d="M17 19.9373C19.0191 19.6829 20.8653 18.6686 22.1628 17.1009C23.4604 15.5333 24.1117 13.53 23.9843 11.499C23.8569 9.468 22.9602 7.56189 21.4769 6.16871C19.9935 4.77553 18.035 4 16 4C13.965 4 12.0065 4.77553 10.5231 6.16871C9.0398 7.56189 8.14315 9.468 8.01571 11.499C7.88828 13.53 8.53963 15.5333 9.83719 17.1009C11.1347 18.6686 12.981 19.6829 15 19.9373V22.0066H10V24.0066H15V28.0066H17V24.0066H22V22.0066H17V19.9373ZM10 12.0066C10 10.8199 10.3519 9.65983 11.0112 8.67313C11.6705 7.68644 12.6076 6.9174 13.7039 6.46328C14.8003 6.00915 16.0067 5.89033 17.1706 6.12184C18.3344 6.35335 19.4035 6.9248 20.2427 7.76391C21.0818 8.60303 21.6532 9.67213 21.8847 10.836C22.1162 11.9999 21.9974 13.2063 21.5433 14.3027C21.0892 15.399 20.3201 16.3361 19.3334 16.9954C18.3467 17.6547 17.1867 18.0066 16 18.0066C14.4092 18.0048 12.8841 17.3721 11.7593 16.2473C10.6345 15.1224 10.0018 13.5973 10 12.0066Z" fill="#161616"/>
</svg>
