<svg width="32" height="32" viewBox="0 0 32 32" fill="none" xmlns="http://www.w3.org/2000/svg">
<path fill-rule="evenodd" clip-rule="evenodd" d="M2 16C2 23.732 8.26801 30 16 30C23.732 30 30 23.732 30 16C30 8.26801 23.732 2 16 2C8.26801 2 2 8.26801 2 16ZM25.15 23.75L8.25 6.85C13.0182 2.88108 20.0255 3.20092 24.4123 7.5877C28.7991 11.9745 29.1189 18.9818 25.15 23.75ZM8.24 25.16C3.19785 20.8782 2.57165 13.3236 6.84 8.27L23.73 25.16C19.258 28.9387 12.712 28.9387 8.24 25.16Z" fill="#161616"/>
</svg>
