<svg width="32" height="32" viewBox="0 0 32 32" fill="none" xmlns="http://www.w3.org/2000/svg">
<path fill-rule="evenodd" clip-rule="evenodd" d="M27.4691 13.8201H16.2891V18.4501H22.7291C22.1291 21.4001 19.6191 23.0901 16.2891 23.0901C12.3734 23.0901 9.19911 19.9158 9.19911 16.0001C9.19911 12.0844 12.3734 8.91007 16.2891 8.91007C17.9004 8.91234 19.4615 9.4704 20.7091 10.4901L24.1991 7.00007C20.1929 3.46694 14.3336 3.00723 9.82542 5.87232C5.3172 8.73742 3.24552 14.2374 4.74326 19.3648C6.24099 24.4921 10.9475 28.0122 16.2891 28.0001C22.2891 28.0001 27.7391 23.6401 27.7391 16.0001C27.7332 15.2654 27.6426 14.5339 27.4691 13.8201V13.8201Z" fill="#161616"/>
</svg>
