<svg width="32" height="32" viewBox="0 0 32 32" fill="none" xmlns="http://www.w3.org/2000/svg">
<path fill-rule="evenodd" clip-rule="evenodd" d="M26.37 20.52L17 15.41V13.86C19.0143 13.3399 20.2936 11.3626 19.9426 9.31212C19.5916 7.26161 17.7274 5.82245 15.6548 6.00195C13.5823 6.18145 11.9933 7.91968 12 10H14C14.0607 9.28548 14.4981 8.65763 15.1472 8.35296C15.7964 8.04829 16.5588 8.1131 17.1472 8.52296C17.7357 8.93283 18.0607 9.62548 18 10.34C17.7957 11.3339 16.9041 12.0354 15.89 12C15.3985 12 15 12.3985 15 12.89V15.41L5.63001 20.52C5.01741 20.8451 4.53151 21.3662 4.25001 22C3.8535 22.8732 3.92621 23.8878 4.44317 24.6956C4.96014 25.5033 5.851 25.9943 6.81 26H25.19C26.149 25.9943 27.0399 25.5033 27.5568 24.6956C28.0738 23.8878 28.1465 22.8732 27.75 22C27.4685 21.3662 26.9826 20.8451 26.37 20.52ZM25.19 24H6.81001C6.36265 24 6.00001 23.6374 6.00001 23.19C5.99901 22.8236 6.19852 22.4859 6.52001 22.31L16 17.14L25.48 22.31C25.8015 22.4859 26.001 22.8236 26 23.19C26 23.6374 25.6374 24 25.19 24Z" fill="#161616"/>
</svg>
