<svg width="32" height="32" viewBox="0 0 32 32" fill="none" xmlns="http://www.w3.org/2000/svg">
<path fill-rule="evenodd" clip-rule="evenodd" d="M16 2C8.26801 2 2 8.26801 2 16C2 23.732 8.26801 30 16 30C23.732 30 30 23.732 30 16C30 12.287 28.525 8.72601 25.8995 6.10051C23.274 3.475 19.713 2 16 2ZM11.5 11.0001C10.1193 11.0001 9 12.1194 9 13.5001C9 14.8808 10.1193 16.0001 11.5 16.0001C12.8807 16.0001 14 14.8808 14 13.5001C14.0054 12.8354 13.7437 12.1964 13.2737 11.7264C12.8037 11.2564 12.1647 10.9947 11.5 11.0001ZM20.5 11.0001C19.1193 11.0001 18 12.1194 18 13.5001C18 14.8808 19.1193 16.0001 20.5 16.0001C21.8807 16.0001 23 14.8808 23 13.5001C23.0054 12.8354 22.7437 12.1964 22.2737 11.7264C21.8037 11.2564 21.1647 10.9947 20.5 11.0001ZM22.85 20.1101C21.4075 22.519 18.8078 23.9953 16 24.0001C13.1922 23.9953 10.5925 22.519 9.15 20.1101L10.86 19.1101C11.9455 20.9126 13.8959 22.0149 16 22.0149C18.1041 22.0149 20.0545 20.9126 21.14 19.1101L22.85 20.1101ZM4 16C4 22.6274 9.37258 28 16 28C22.6274 28 28 22.6274 28 16C28 9.37258 22.6274 4 16 4C9.37258 4 4 9.37258 4 16Z" fill="#161616"/>
</svg>
