<svg width="32" height="32" viewBox="0 0 32 32" fill="none" xmlns="http://www.w3.org/2000/svg">
<path fill-rule="evenodd" clip-rule="evenodd" d="M25 10H24.94C24.4133 5.46129 20.5692 2.03751 16 2.03751C11.4308 2.03751 7.58672 5.46129 7.06 10H7C4.23858 10 2 12.2386 2 15C2 17.7614 4.23858 20 7 20H9V11C9 7.13402 12.134 4.00001 16 4.00001C19.866 4.00001 23 7.13402 23 11V21C22.9986 22.8882 21.6771 24.5182 19.83 24.91C19.2777 22.973 17.3713 21.7488 15.3801 22.0525C13.3889 22.3563 11.9342 24.0932 11.9846 26.1068C12.0349 28.1203 13.5746 29.7824 15.5785 29.9863C17.5823 30.1901 19.4252 28.8722 19.88 26.91C22.8123 26.4753 24.9876 23.9643 25 21V20C27.7614 20 30 17.7614 30 15C30 12.2386 27.7614 10 25 10ZM4 15C4 13.3432 5.34315 12 7 12V18C5.34315 18 4 16.6569 4 15V15ZM16 28C14.8954 28 14 27.1046 14 26C14 24.8954 14.8954 24 16 24C17.1046 24 18 24.8954 18 26C18 27.1046 17.1046 28 16 28ZM25 18V12C26.6569 12 28 13.3432 28 15C28 16.6569 26.6569 18 25 18V18Z" fill="#161616"/>
</svg>
