<svg width="32" height="32" viewBox="0 0 32 32" fill="none" xmlns="http://www.w3.org/2000/svg">
<path fill-rule="evenodd" clip-rule="evenodd" d="M2 16.3333C2 24.0653 8.26801 30.3333 16 30.3333C23.732 30.3333 30 24.0653 30 16.3333C30 8.60136 23.732 2.33334 16 2.33334C8.26801 2.33334 2 8.60136 2 16.3333ZM4 16.3333C4 9.70593 9.37258 4.33334 16 4.33334C22.6274 4.33334 28 9.70593 28 16.3333C28 22.9608 22.6274 28.3333 16 28.3333C9.37258 28.3333 4 22.9608 4 16.3333ZM17 22V13H13V15H15V22H12V24H20V22H17ZM14.5 8.50001C14.5 7.67158 15.1716 7.00001 16 7.00001C16.8284 7.00001 17.5 7.67158 17.5 8.50001C17.5 9.32844 16.8284 10 16 10C15.1716 10 14.5 9.32844 14.5 8.50001Z" fill="#161616"/>
</svg>
