<svg width="32" height="32" viewBox="0 0 32 32" fill="none" xmlns="http://www.w3.org/2000/svg">
<path d="M27.9282 11.0526C27.8698 9.77524 27.6669 8.90291 27.3703 8.13971C27.0691 7.33898 26.5967 6.61369 25.9862 6.01419C25.3869 5.40371 24.6614 4.93111 23.8607 4.62971C23.0973 4.33326 22.2251 4.13056 20.9478 4.07251C19.668 4.01392 19.2592 4 16.0002 4C12.7412 4 12.3323 4.01392 11.0526 4.07214C9.77524 4.13056 8.90309 4.33344 8.13971 4.63008C7.33898 4.93129 6.61369 5.40371 6.01419 6.01419C5.40371 6.61351 4.93111 7.3388 4.62971 8.13953C4.33326 8.90291 4.13056 9.77524 4.07251 11.0524C4.01392 12.3323 4 12.741 4 16C4 19.2592 4.01392 19.668 4.07251 20.9478C4.13074 22.225 4.33362 23.0973 4.63026 23.8607C4.93147 24.6612 5.40389 25.3867 6.01438 25.986C6.61369 26.5965 7.33916 27.0689 8.1399 27.3701C8.90309 27.6669 9.77542 27.8696 11.0528 27.9281C12.3327 27.9865 12.7414 28.0002 16.0004 28.0002C19.2593 28.0002 19.6682 27.9865 20.948 27.9281C22.2253 27.8696 23.0975 27.6669 23.8609 27.3701C25.4728 26.7468 26.747 25.4726 27.3703 23.8607C27.6671 23.0973 27.8698 22.225 27.9282 20.9478C27.9865 19.6679 28.0004 19.2592 28.0004 16.0002C28.0004 12.741 27.9865 12.3323 27.9282 11.0526V11.0526ZM25.7681 20.8494C25.7148 22.0195 25.5193 22.6549 25.355 23.0777C24.9513 24.1243 24.1242 24.9514 23.0775 25.3552C22.6547 25.5194 22.0193 25.715 20.8493 25.7683C19.5842 25.8262 19.2046 25.8382 16.0002 25.8382C12.7956 25.8382 12.4162 25.8262 11.1509 25.7683C9.98105 25.715 9.34567 25.5194 8.92269 25.3552C8.40156 25.1628 7.93006 24.856 7.54296 24.4574C7.14434 24.0703 6.83763 23.599 6.64518 23.0777C6.48094 22.6549 6.28538 22.0195 6.23209 20.8494C6.17441 19.5842 6.16214 19.2046 6.16214 16.0004C6.16214 12.796 6.17441 12.4166 6.23209 11.1511C6.28556 9.98105 6.48094 9.34567 6.64518 8.92287C6.83763 8.40156 7.14452 7.93006 7.54296 7.54296C7.93006 7.14434 8.40156 6.83763 8.92287 6.64537C9.34567 6.48094 9.98105 6.28556 11.1511 6.23209C12.4164 6.17441 12.796 6.16214 16.0002 6.16214H16C19.2042 6.16214 19.5838 6.17441 20.8493 6.23227C22.0193 6.28556 22.6545 6.48112 23.0775 6.64537C23.5986 6.83781 24.0701 7.14452 24.4572 7.54296C24.8559 7.93006 25.1626 8.40156 25.3548 8.92287C25.5193 9.34567 25.7148 9.98105 25.7681 11.1511C25.8258 12.4164 25.8381 12.796 25.8381 16.0002C25.8381 19.2046 25.826 19.584 25.7681 20.8494Z" fill="#161616"/>
<path d="M15.9998 9.83752C12.5966 9.83752 9.83768 12.5966 9.83768 15.9999C9.83768 19.4031 12.5966 22.162 15.9998 22.162C19.4033 22.162 22.1622 19.4031 22.1622 15.9999C22.1622 12.5966 19.4033 9.83752 15.9998 9.83752V9.83752ZM15.9998 19.9999C13.7908 19.9997 11.9998 18.2089 12 15.9997C12 13.7907 13.7908 11.9997 16 11.9997C18.2092 11.9999 20 13.7907 20 15.9997C20 18.2089 18.209 19.9999 15.9998 19.9999V19.9999Z" fill="#161616"/>
<path d="M23.8456 9.59417C23.8456 10.3894 23.2009 11.0341 22.4057 11.0341C21.6103 11.0341 20.9655 10.3894 20.9655 9.59417C20.9655 8.79875 21.6103 8.15402 22.4057 8.15402C23.2009 8.15402 23.8456 8.79875 23.8456 9.59417V9.59417Z" fill="#161616"/>
</svg>
