<svg width="32" height="32" viewBox="0 0 32 32" fill="none" xmlns="http://www.w3.org/2000/svg">
<path fill-rule="evenodd" clip-rule="evenodd" d="M28 4H14V8H28V4ZM12 2V10H30V2H12Z" fill="#161616"/>
<path fill-rule="evenodd" clip-rule="evenodd" d="M28 14H14V18H28V14ZM12 12V20H30V12H12Z" fill="#161616"/>
<path fill-rule="evenodd" clip-rule="evenodd" d="M28 24H14V28H28V24ZM12 22V30H30V22H12Z" fill="#161616"/>
<path fill-rule="evenodd" clip-rule="evenodd" d="M8 4H4V8H8V4ZM2 2V10H10V2H2Z" fill="#161616"/>
<path fill-rule="evenodd" clip-rule="evenodd" d="M8 14H4V18H8V14ZM2 12V20H10V12H2Z" fill="#161616"/>
<path fill-rule="evenodd" clip-rule="evenodd" d="M8 24H4V28H8V24ZM2 22V30H10V22H2Z" fill="#161616"/>
</svg>
