<svg width="32" height="32" viewBox="0 0 32 32" fill="none" xmlns="http://www.w3.org/2000/svg">
<path fill-rule="evenodd" clip-rule="evenodd" d="M5 12.71C5.08229 6.71589 10.0058 1.92214 16 1.99999C21.9942 1.92214 26.9177 6.71589 27 12.71C26.9975 15.0376 26.2238 17.2987 24.8 19.14L16 32L7.2 19.14C5.77617 17.2987 5.00253 15.0376 5 12.71ZM25 12.71C24.9069 7.82515 20.8853 3.93308 16 3.99999C11.1147 3.93308 7.09307 7.82515 7 12.71C6.99855 14.6322 7.65095 16.4977 8.85 18L16 28.46L23.21 17.92C24.3705 16.4313 25.0005 14.5976 25 12.71ZM16 10C17.6569 10 19 11.3431 19 13C19 14.6569 17.6569 16 16 16C14.3431 16 13 14.6569 13 13C13 11.3431 14.3431 10 16 10ZM11 13C11 10.2386 13.2386 8 16 8C18.7614 8 21 10.2386 21 13C21 15.7614 18.7614 18 16 18C13.2386 18 11 15.7614 11 13Z" fill="#161616"/>
</svg>
