<svg width="32" height="32" viewBox="0 0 32 32" fill="none" xmlns="http://www.w3.org/2000/svg">
<path d="M18 4V6H24.5859L16.8975 13.6885C15.2846 12.4354 13.2548 11.8441 11.2213 12.0351C9.18777 12.2261 7.30352 13.185 5.95222 14.7166C4.60092 16.2481 3.88417 18.2371 3.94792 20.2785C4.01166 22.32 4.85112 24.2604 6.29535 25.7046C7.73958 27.1488 9.67998 27.9883 11.7214 28.052C13.7629 28.1158 15.7519 27.399 17.2834 26.0477C18.8149 24.6964 19.7738 22.8122 19.9648 20.7787C20.1558 18.7452 19.5646 16.7154 18.3115 15.1025L26 7.4141V14H28V4H18ZM12 26C10.8133 26 9.65323 25.6481 8.66654 24.9888C7.67984 24.3295 6.91081 23.3925 6.45668 22.2961C6.00256 21.1997 5.88374 19.9933 6.11525 18.8295C6.34676 17.6656 6.9182 16.5965 7.75732 15.7574C8.59643 14.9182 9.66553 14.3468 10.8294 14.1153C11.9933 13.8838 13.1997 14.0026 14.2961 14.4567C15.3924 14.9108 16.3295 15.6799 16.9888 16.6666C17.6481 17.6533 18 18.8133 18 20C17.9982 21.5908 17.3655 23.1159 16.2407 24.2407C15.1158 25.3656 13.5907 25.9983 12 26V26Z" fill="#161616"/>
</svg>
