<svg width="32" height="32" viewBox="0 0 32 32" fill="none" xmlns="http://www.w3.org/2000/svg">
<path d="M21.6193 7.15732C19.4563 7.15788 17.4848 7.95661 15.9988 9.26848C14.5118 7.9583 12.5413 7.15901 10.3807 7.15901C10.3628 7.15901 10.3443 7.15901 10.3269 7.15901C5.72578 7.1883 2 10.835 2 15.3237C2 19.8305 5.75469 23.4878 10.3801 23.4878C12.5408 23.4878 14.5112 22.6897 15.9977 21.3784C15.6872 21.1052 15.4062 20.8027 15.1408 20.4861H16.8713C16.6106 20.7976 16.3261 21.0894 16.0202 21.3609H16.0191C16.0121 21.3682 16.0046 21.3727 15.9977 21.3789C17.4853 22.6914 19.4581 23.4912 21.6222 23.4907C26.2505 23.489 30.0012 19.8322 30 15.3237C30 15.322 30 15.3209 30 15.3198C30.0006 10.8113 26.2476 7.15619 21.6193 7.15732ZM15.2368 10.1117H16.8297C17.0644 10.3888 17.2824 10.6806 17.4801 10.9859H14.6384C14.8217 10.6941 15.0229 10.3939 15.2368 10.1117ZM14.1435 11.8432H17.9635C18.0994 12.126 18.2196 12.4183 18.3249 12.718H13.6908C13.737 12.6335 13.8989 12.2933 14.1435 11.8432ZM5.42108 17.4033L5.9293 14.2816L4.78277 17.4033H4.16817L4.08838 14.2816L3.54547 17.4033H2.68456L3.39803 13.2632H4.70009L4.74577 15.8036L5.62518 13.2632H7.03766L6.33402 17.4033H5.42108ZM8.46519 17.3966L8.49467 17.0659C8.4808 17.0676 8.20905 17.4653 7.57942 17.4653C7.24985 17.4653 6.71793 17.2901 6.71793 16.5286C6.71793 15.5603 7.52854 15.2392 8.3004 15.2392C8.42182 15.2392 8.68374 15.2606 8.68374 15.2606C8.68374 15.2606 8.71322 15.2015 8.71322 15.0415C8.71322 14.7785 8.47039 14.7424 8.13794 14.7424C7.55224 14.7424 7.16544 14.895 7.16544 14.895L7.29495 14.1459C7.29495 14.1459 7.76443 13.9544 8.37557 13.9544C8.69183 13.9544 9.6013 13.987 9.6013 15.0026L9.25093 17.3966H8.46519ZM11.7857 16.3421C11.7857 17.4974 10.6368 17.4478 10.4362 17.4478C9.68745 17.4478 9.45618 17.347 9.43479 17.3414L9.55389 16.5809C9.55505 16.5742 9.92971 16.7133 10.3466 16.7133C10.5871 16.7133 10.8993 16.6902 10.8993 16.4103C10.8993 15.9912 9.78227 16.0914 9.78227 15.0961C9.78227 14.218 10.4518 13.9611 11.1121 13.9611C11.622 13.9611 11.9354 14.0293 11.9354 14.0293L11.8227 14.7965C11.8227 14.7965 11.3387 14.7576 11.2133 14.7576C10.8958 14.7576 10.723 14.8252 10.723 15.0415C10.7224 15.4763 11.7857 15.2634 11.7857 16.3421ZM13.1652 16.6451C13.2444 16.6451 13.334 16.6187 13.3953 16.6187L13.2837 17.3571C13.1941 17.3814 12.9403 17.4692 12.6148 17.4715C12.1991 17.4749 11.9036 17.2484 11.9036 16.7347C11.9036 16.39 12.4107 13.5494 12.4303 13.5308H13.3225L13.2317 14.0389H13.6769L13.563 14.8573H13.0906L12.8397 16.3652C12.8206 16.4852 12.8547 16.6451 13.1652 16.6451ZM15.1275 13.9431C16.107 13.9431 16.4001 14.6416 16.4001 15.2144C16.4001 15.4437 16.2821 16.007 16.2821 16.007H14.469C14.469 16.007 14.3013 16.7026 15.2594 16.7026C15.7086 16.7026 16.207 16.4886 16.207 16.4886L16.0497 17.3262C16.0497 17.3262 15.7618 17.4692 15.1073 17.4692C14.3979 17.4692 13.5659 17.1769 13.5659 15.9489C13.5664 14.8849 14.2302 13.9431 15.1275 13.9431ZM17.4905 19.6452H14.5176C14.3366 19.3635 14.1678 19.0746 14.0226 18.771H17.9791C17.8334 19.0729 17.6704 19.3646 17.4905 19.6452ZM17.2911 17.4095H16.3752L16.932 14.04H17.7629L17.6831 14.5284C17.6831 14.5284 17.9791 13.9972 18.3786 13.9972C18.4948 13.9972 18.5509 14.0085 18.5509 14.0085C18.4324 14.2439 18.3277 14.4596 18.219 15.0167C17.5992 14.8027 17.5518 15.9703 17.2911 17.4095ZM20.7804 17.3571C20.7804 17.3571 20.3005 17.4765 19.9998 17.4765C18.9348 17.4765 18.3942 16.7606 18.3942 15.6763C18.3942 14.0411 19.3962 13.1703 20.426 13.1703C20.8914 13.1703 21.4308 13.3832 21.4308 13.3832L21.2851 14.3042C21.2851 14.3042 20.9203 14.0558 20.4664 14.0558C19.8593 14.0558 19.3147 14.6202 19.3147 15.6459C19.3147 16.1512 19.5685 16.6221 20.2022 16.6221C20.5034 16.6221 20.94 16.4086 20.94 16.4086L20.7804 17.3571ZM22.9283 17.3982L22.9584 17.0654C22.9439 17.067 22.6722 17.4647 22.0431 17.4647C21.7136 17.4647 21.1816 17.2895 21.1816 16.528C21.1816 15.5597 21.9922 15.2386 22.7635 15.2386C22.8849 15.2386 23.1474 15.2601 23.1474 15.2601C23.1474 15.2601 23.1775 15.2015 23.1775 15.0415C23.1775 14.7785 22.9347 14.7424 22.6016 14.7424C22.0159 14.7424 21.6297 14.895 21.6297 14.895L21.7592 14.1459C21.7592 14.1459 22.2287 13.9544 22.8404 13.9544C23.1561 13.9544 24.0662 13.987 24.0656 15.0026L23.7152 17.3966C23.7146 17.3982 22.9283 17.3982 22.9283 17.3982ZM24.7825 17.4095H23.8667L24.4235 14.04H25.2549L25.1751 14.5284C25.1751 14.5284 25.4717 13.9972 25.8712 13.9972C25.9874 13.9972 26.0429 14.0085 26.0429 14.0085C25.925 14.2439 25.8192 14.4596 25.7111 15.0167C25.0907 14.8027 25.0433 15.9703 24.7825 17.4095ZM27.5167 17.4005L27.5555 17.0901C27.5555 17.0901 27.2594 17.454 26.724 17.454C25.9822 17.454 25.6186 16.7561 25.6186 16.043C25.6186 14.9401 26.2997 13.9786 27.1172 13.9786C27.6433 13.9797 27.9793 14.432 27.9793 14.432L28.1724 13.2689L29.0668 13.2672L28.3846 17.4005H27.5167V17.4005ZM29.2813 17.2839C29.2576 17.3256 29.2241 17.3577 29.1813 17.3825C29.1391 17.4056 29.094 17.4174 29.0466 17.4174C29.0003 17.4174 28.9558 17.4056 28.913 17.3825C28.8702 17.3577 28.8367 17.3256 28.813 17.2839C28.7887 17.2417 28.7772 17.1989 28.7772 17.1532C28.7772 17.107 28.7893 17.0631 28.813 17.0214C28.8367 16.9797 28.872 16.9459 28.9142 16.9234C28.9581 16.9003 29.0015 16.8885 29.0466 16.8885C29.0928 16.8885 29.1368 16.9003 29.1796 16.9234C29.2235 16.9465 29.257 16.9786 29.2813 17.0214C29.3062 17.0637 29.3172 17.1076 29.3172 17.1532C29.3172 17.1989 29.3056 17.2422 29.2813 17.2839Z" fill="#161616"/>
<path d="M8.37267 15.8853C7.71875 15.8853 7.58635 16.1715 7.58635 16.4097C7.58635 16.5325 7.65862 16.7376 7.93557 16.7376C8.4727 16.7376 8.58428 16.0515 8.56694 15.9056C8.5415 15.9005 8.52531 15.8859 8.37267 15.8853Z" fill="#161616"/>
<path d="M15.131 14.7209C14.6448 14.7209 14.5511 15.26 14.5511 15.3169H15.5415C15.5415 15.2735 15.6346 14.7209 15.131 14.7209Z" fill="#161616"/>
<path d="M27.2716 14.8151C26.879 14.8151 26.5685 15.2589 26.5691 15.9332C26.5691 16.3444 26.7194 16.608 27.0409 16.608C27.5242 16.608 27.7572 15.9934 27.7572 15.5355C27.7572 15.0302 27.5925 14.8151 27.2716 14.8151Z" fill="#161616"/>
<path d="M22.837 15.8853C22.183 15.8853 22.0506 16.1715 22.0506 16.4097C22.0506 16.5325 22.1223 16.7376 22.3999 16.7376C22.937 16.7376 23.048 16.0515 23.0312 15.9056C23.0052 15.9005 22.989 15.8859 22.837 15.8853Z" fill="#161616"/>
<path d="M29.0957 17.0721C29.0911 17.0664 29.0847 17.0619 29.0761 17.058C29.0662 17.0552 29.0518 17.0524 29.0286 17.0524V17.0529H28.976V17.1385H29.0333C29.0604 17.1385 29.0784 17.1352 29.0894 17.1267C29.098 17.1183 29.1032 17.1076 29.1032 17.0952C29.1032 17.0856 29.1009 17.08 29.0957 17.0721Z" fill="#161616"/>
<path d="M29.2408 17.0439C29.2206 17.009 29.1922 16.982 29.1564 16.9622C29.1206 16.9425 29.0841 16.933 29.046 16.933C29.009 16.933 28.9714 16.9431 28.9355 16.9622C28.8997 16.9803 28.8714 17.0084 28.8511 17.0439C28.8309 17.0794 28.8205 17.1171 28.8205 17.1538C28.8205 17.1915 28.8309 17.2287 28.85 17.263C28.8714 17.298 28.8985 17.3244 28.9344 17.3453C28.9702 17.3644 29.0072 17.3757 29.046 17.3757C29.0847 17.3757 29.1229 17.3644 29.1576 17.3453C29.1934 17.3256 29.2212 17.2985 29.242 17.263C29.2622 17.2281 29.2715 17.1915 29.2715 17.1538C29.2715 17.1166 29.2611 17.0794 29.2408 17.0439ZM29.1154 17.2985L29.0893 17.2546C29.0691 17.2191 29.0529 17.1966 29.0408 17.1881C29.0309 17.1808 29.0194 17.1774 29.0026 17.1774H28.976V17.298H28.9274V17.0141H29.0286C29.0627 17.0141 29.0882 17.0169 29.1026 17.0231C29.1171 17.0281 29.1298 17.0377 29.1396 17.0501C29.1495 17.0625 29.1529 17.0766 29.1529 17.0918C29.1529 17.1126 29.1448 17.1301 29.1298 17.1459C29.1148 17.1622 29.094 17.169 29.0697 17.1718C29.0812 17.1763 29.0888 17.1814 29.0945 17.1864C29.1067 17.1983 29.1206 17.2152 29.1373 17.2422L29.1732 17.2985C29.1732 17.2985 29.1154 17.2985 29.1154 17.2985Z" fill="#161616"/>
</svg>
