<svg width="32" height="32" viewBox="0 0 32 32" fill="none" xmlns="http://www.w3.org/2000/svg">
<path fill-rule="evenodd" clip-rule="evenodd" d="M13.49 5.41C12.5637 9.36561 13.2725 13.5277 15.4561 16.9536C17.6397 20.3795 21.1132 22.7795 25.09 23.61C22.9954 25.7811 20.1068 27.0051 17.09 27H16.67C11.3259 26.8037 6.88136 22.8249 6.0973 17.5349C5.31324 12.245 8.41254 7.14794 13.47 5.41H13.49ZM15 3H14.8C8.13903 4.10374 3.41036 10.0927 3.88183 16.828C4.3533 23.5633 9.87022 28.835 16.62 29H17.11C21.3727 29.0026 25.3693 26.9278 27.82 23.44C28.0263 23.1348 28.0481 22.7408 27.8767 22.4147C27.7053 22.0886 27.3684 21.8831 27 21.88C22.9557 21.5163 19.3096 19.2948 17.1318 15.8676C14.954 12.4403 14.4915 8.1959 15.88 4.38C16.0041 4.0788 15.9737 3.73602 15.7986 3.46134C15.6234 3.18666 15.3254 3.01452 15 3Z" fill="#161616"/>
</svg>
