<svg width="32" height="32" viewBox="0 0 32 32" fill="none" xmlns="http://www.w3.org/2000/svg">
<path fill-rule="evenodd" clip-rule="evenodd" d="M29.41 21.67L10.34 2.57998C9.96486 2.20443 9.45582 1.99341 8.925 1.99341C8.39418 1.99341 7.88514 2.20443 7.51 2.57998L2.59 7.50998C1.81455 8.29006 1.81455 9.54991 2.59 10.33L21.66 29.42C22.0374 29.7944 22.5484 30.0031 23.08 30C23.6081 30.0004 24.115 29.7919 24.49 29.42L29.41 24.49C30.1854 23.7099 30.1854 22.4501 29.41 21.67ZM23.08 28L4 8.91999L8.92 3.99999L12.71 7.78999L10.46 9.99999L11.87 11.41L14.12 9.19999L18.25 13.33L16 15.58L17.42 17L19.67 14.75L23.8 18.88L21.55 21.13L23 22.54L25.25 20.29L28 23.08L23.08 28Z" fill="#161616"/>
</svg>
