<svg width="32" height="32" viewBox="0 0 32 32" fill="none" xmlns="http://www.w3.org/2000/svg">
<path fill-rule="evenodd" clip-rule="evenodd" d="M30 28.59L22.45 21C26.1993 16.4762 25.7315 9.80441 21.3875 5.8481C17.0435 1.89179 10.3572 2.04785 6.20251 6.20252C2.04784 10.3572 1.89177 17.0435 5.84808 21.3875C9.80439 25.7315 16.4762 26.1993 21 22.45L28.59 30L30 28.59ZM5 14C5 9.02945 9.02943 5.00001 14 5.00001C18.9706 5.00001 23 9.02945 23 14C23 18.9706 18.9706 23 14 23C9.02943 23 5 18.9706 5 14Z" fill="#161616"/>
</svg>
