<svg width="32" height="32" viewBox="0 0 32 32" fill="none" xmlns="http://www.w3.org/2000/svg">
<path fill-rule="evenodd" clip-rule="evenodd" d="M23 20C21.4838 20.0076 20.053 20.7028 19.11 21.89L11.8 17.32C12.0664 16.4602 12.0664 15.5398 11.8 14.68L19.11 10.11C20.642 12.007 23.3188 12.5223 25.4455 11.3296C27.5722 10.137 28.5286 7.58426 27.709 5.28784C26.8893 2.99142 24.5328 1.62109 22.1316 2.04454C19.7303 2.468 17.9847 4.56175 18 7.00001C18.0047 7.44719 18.072 7.8915 18.2 8.32001L10.89 12.89C9.56725 11.2248 7.33595 10.5786 5.32801 11.279C3.32008 11.9795 1.97491 13.8734 1.97491 16C1.97491 18.1266 3.32008 20.0205 5.32801 20.721C7.33595 21.4215 9.56725 20.7752 10.89 19.11L18.2 23.68C18.072 24.1085 18.0047 24.5528 18 25C18 27.7614 20.2386 30 23 30C25.7614 30 28 27.7614 28 25C28 22.2386 25.7614 20 23 20ZM23 4.00001C24.6569 4.00001 26 5.34315 26 7.00001C26 8.65686 24.6569 10 23 10C21.3431 10 20 8.65686 20 7.00001C20 5.34315 21.3431 4.00001 23 4.00001ZM7 19C5.34315 19 4 17.6569 4 16C4 14.3432 5.34315 13 7 13C8.65685 13 10 14.3432 10 16C10 17.6569 8.65685 19 7 19ZM23 28C21.3431 28 20 26.6569 20 25C20 23.3432 21.3431 22 23 22C24.6569 22 26 23.3432 26 25C26 26.6569 24.6569 28 23 28Z" fill="#161616"/>
</svg>
