<svg width="32" height="32" viewBox="0 0 32 32" fill="none" xmlns="http://www.w3.org/2000/svg">
<path fill-rule="evenodd" clip-rule="evenodd" d="M30 10.68L28 4.68C27.857 4.25463 27.4482 3.97661 27 4H5C4.55185 3.97661 4.14299 4.25463 4 4.68L2 10.68C1.98559 10.7862 1.98559 10.8938 2 11V17C2 17.5523 2.44772 18 3 18H4V28H6V18H12V28H28V18H29C29.5523 18 30 17.5523 30 17V11C30.0144 10.8938 30.0144 10.7862 30 10.68ZM26 26H14V18H26V26ZM28 16H24V12H22V16H17V12H15V16H10V12H8V16H4V11.16L5.72 6H26.28L28 11.16V16Z" fill="#161616"/>
</svg>
