<svg width="32" height="32" viewBox="0 0 32 32" fill="none" xmlns="http://www.w3.org/2000/svg">
<path fill-rule="evenodd" clip-rule="evenodd" d="M16 12.005C18.2091 12.005 20 13.7959 20 16.005C20 18.2141 18.2091 20.005 16 20.005C13.7909 20.005 12 18.2141 12 16.005C12.0028 13.797 13.792 12.0078 16 12.005ZM16 10.005C12.6863 10.005 10 12.6913 10 16.005C10 19.3187 12.6863 22.005 16 22.005C19.3137 22.005 22 19.3187 22 16.005C22 12.6913 19.3137 10.005 16 10.005V10.005ZM5.394 6.813L6.81 5.399L10.315 8.905L8.9 10.319L5.394 6.813ZM2 15.005H7V17.005H2V15.005ZM5.394 25.198L8.9 21.692L10.314 23.106L6.809 26.612L5.394 25.198ZM15 25.005H17V30.005H15V25.005ZM21.687 23.105L23.101 21.691L26.607 25.197L25.193 26.611L21.687 23.105ZM25 15.005H30V17.005H25V15.005ZM21.687 8.904L25.193 5.398L26.607 6.812L23.101 10.318L21.687 8.904ZM15 2.005H17V7.005H15V2.005Z" fill="#161616"/>
</svg>
