<svg width="32" height="32" viewBox="0 0 32 32" fill="none" xmlns="http://www.w3.org/2000/svg">
<path fill-rule="evenodd" clip-rule="evenodd" d="M10 16C11.1046 16 12 15.1046 12 14C12 12.8954 11.1046 12 10 12C8.89543 12 8 12.8954 8 14C8 15.1046 8.89543 16 10 16ZM15.29 29.71C15.4787 29.8972 15.7342 30.0015 16 30C16.2658 30.0015 16.5213 29.8972 16.71 29.71L25.71 20.71C25.8993 20.5222 26.0058 20.2666 26.0058 20C26.0058 19.7334 25.8993 19.4778 25.71 19.29L15 8.59C14.6266 8.21441 14.1196 8.00223 13.59 8H6C4.89543 8 4 8.89543 4 10V17.59C4.00223 18.1196 4.21441 18.6266 4.59 19L15.29 29.71ZM6 17.59V10H13.59L23.59 20L16 27.59L6 17.59ZM27.71 13.29L17 2.59C16.6266 2.21441 16.1196 2.00223 15.59 2H8C6.89543 2 6 2.89543 6 4V6H8V4H15.59L25.59 14L24.29 15.29L25.71 16.71L27.71 14.71C27.8993 14.5222 28.0058 14.2666 28.0058 14C28.0058 13.7334 27.8993 13.4778 27.71 13.29Z" fill="#161616"/>
</svg>
