<svg width="32" height="32" viewBox="0 0 32 32" fill="none" xmlns="http://www.w3.org/2000/svg">
<path fill-rule="evenodd" clip-rule="evenodd" d="M19 3H13V5H19V3ZM26.4608 7.92336L27.8808 9.33336L25.3908 11.8234C28.3353 16.8721 26.7913 23.3436 21.8846 26.5191C16.978 29.6947 10.4418 28.4526 7.04196 23.6986C3.64213 18.9446 4.57952 12.3579 9.17063 8.7411C13.7617 5.12432 20.3849 5.75503 24.2108 10.1734L26.4608 7.92336ZM6.88084 17.3334C6.88084 22.3039 10.9103 26.3334 15.8808 26.3334C20.8514 26.3334 24.8808 22.3039 24.8808 17.3334C24.8808 12.3628 20.8514 8.33336 15.8808 8.33336C10.9103 8.33336 6.88084 12.3628 6.88084 17.3334ZM15 12H17V21H15V12Z" fill="#161616"/>
</svg>
