<svg width="32" height="32" viewBox="0 0 32 32" fill="none" xmlns="http://www.w3.org/2000/svg">
<path fill-rule="evenodd" clip-rule="evenodd" d="M16 24C16.8284 24 17.5 23.3284 17.5 22.5C17.5 21.6716 16.8284 21 16 21C15.1716 21 14.5 21.6716 14.5 22.5C14.5 23.3284 15.1716 24 16 24ZM17 19H15V15H17C18.1046 15 19 14.1046 19 13C19 11.8954 18.1046 11 17 11H15C13.8959 11.0011 13.0011 11.8959 13 13V13.5H11V13C11.0028 10.792 12.792 9.00277 15 9.00001H17C19.2091 9.00001 21 10.7909 21 13C21 15.2092 19.2091 17 17 17V19ZM14.527 29.39C14.9172 29.7813 15.4474 30.0008 16 30C16.5525 30.0011 17.0826 29.7819 17.473 29.391L29.391 17.473C30.2029 16.6588 30.2029 15.3412 29.391 14.527L17.473 2.60901C16.6588 1.79708 15.3412 1.79708 14.527 2.60901L2.609 14.528C1.79706 15.3422 1.79706 16.6598 2.609 17.474L14.527 29.39ZM15.94 4.02401C15.956 4.00833 15.9776 3.99969 16 4.00001V3.99901C16.0225 3.99896 16.0442 4.00797 16.06 4.02401L27.976 15.942C28.0083 15.9747 28.0083 16.0273 27.976 16.06L16.058 27.976C16.0253 28.0083 15.9727 28.0083 15.94 27.976L4.025 16.058C3.99272 16.0253 3.99272 15.9727 4.025 15.94L15.94 4.02401Z" fill="#161616"/>
</svg>
