<svg width="32" height="32" viewBox="0 0 32 32" fill="none" xmlns="http://www.w3.org/2000/svg">
<path fill-rule="evenodd" clip-rule="evenodd" d="M16 4C18.7614 4 21 6.23858 21 9C21 11.7614 18.7614 14 16 14C13.2386 14 11 11.7614 11 9C11 6.23858 13.2386 4 16 4V4ZM16 2C12.134 2 9 5.13401 9 9C9 12.866 12.134 16 16 16C19.866 16 23 12.866 23 9C23 5.13401 19.866 2 16 2ZM26 30H24V25C24 23.6739 23.4732 22.4021 22.5355 21.4645C21.5979 20.5268 20.3261 20 19 20H13C10.2386 20 8 22.2386 8 25V30H6V25C6 21.134 9.13401 18 13 18H19C22.866 18 26 21.134 26 25V30Z" fill="#161616"/>
</svg>
