<svg width="32" height="32" viewBox="0 0 32 32" fill="none" xmlns="http://www.w3.org/2000/svg">
<path d="M13.2113 12.2703L11.7883 20.6171H14.0642L15.4884 12.2703H13.2113Z" fill="#161616"/>
<path d="M9.88007 12.2796L7.65103 17.9719L7.41337 17.1124C6.97377 16.0768 5.72579 14.5895 4.26064 13.6522L6.29885 20.6129L8.70701 20.6088L12.2912 12.2778L9.88007 12.2796Z" fill="#161616"/>
<path d="M6.5494 12.8774C6.41711 12.3689 6.0337 12.2174 5.5578 12.1992H2.02927L2 12.3654C4.74591 13.0312 6.56286 14.6355 7.3168 16.5646L6.5494 12.8774Z" fill="#161616"/>
<path d="M20.101 13.8713C20.8456 13.8596 21.3853 14.0223 21.8044 14.1908L22.0099 14.2873L22.3178 12.4782C21.867 12.3091 21.1605 12.1277 20.279 12.1277C18.03 12.1277 16.4449 13.2599 16.4326 14.8823C16.4179 16.0812 17.5617 16.7505 18.4257 17.1501C19.3125 17.5597 19.6099 17.82 19.6058 18.1857C19.5988 18.7445 18.8987 19.0007 18.2448 19.0007C17.3334 19.0007 16.8493 18.875 16.1018 18.5637L15.8086 18.4303L15.4884 20.2985C16.0211 20.5319 17.0039 20.7326 18.0242 20.7431C20.4165 20.7431 21.9712 19.6244 21.9876 17.8908C21.9976 16.9424 21.3905 16.2187 20.0753 15.6248C19.2792 15.2375 18.7921 14.98 18.7968 14.5892C18.7968 14.2422 19.2101 13.8713 20.101 13.8713Z" fill="#161616"/>
<path d="M28.1585 12.2795H26.4001C25.8539 12.2795 25.4477 12.4282 25.2077 12.9723L21.8284 20.6217H24.2184C24.2184 20.6217 24.6083 19.5931 24.6967 19.3679C24.9583 19.3679 27.2804 19.3714 27.6112 19.3714C27.6791 19.6627 27.8886 20.6217 27.8886 20.6217H30L28.1585 12.2795ZM25.3517 17.6594C25.539 17.1802 26.2584 15.3267 26.2584 15.3267C26.2461 15.3495 26.444 14.844 26.5616 14.5298L26.715 15.2494C26.715 15.2494 27.1511 17.2422 27.2424 17.6594H25.3517Z" fill="#161616"/>
</svg>
