<svg width="32" height="32" viewBox="0 0 32 32" fill="none" xmlns="http://www.w3.org/2000/svg">
<path fill-rule="evenodd" clip-rule="evenodd" d="M2.14614 28.5245C2.32806 28.823 2.65258 29.0048 3.00208 29.004H29.0021C29.3516 29.0048 29.6761 28.823 29.858 28.5245C30.0399 28.2261 30.0529 27.8544 29.8921 27.544L16.8921 2.54404C16.721 2.21007 16.3773 2 16.0021 2C15.6268 2 15.2832 2.21007 15.1121 2.54404L2.11208 27.544C1.95131 27.8544 1.96422 28.2261 2.14614 28.5245ZM16.0021 5.17404L27.3521 27.004H4.65208L16.0021 5.17404ZM16 22C15.1716 22 14.5 22.6716 14.5 23.5C14.5 24.3284 15.1716 25 16 25C16.8284 25 17.5 24.3284 17.5 23.5C17.5 22.6716 16.8284 22 16 22ZM17 11H15V20H17V11Z" fill="#161616"/>
</svg>
