<svg width="32" height="32" viewBox="0 0 32 32" fill="none" xmlns="http://www.w3.org/2000/svg">
<path fill-rule="evenodd" clip-rule="evenodd" d="M25.8966 6.04539C23.2708 3.41652 19.7787 1.96813 16.0584 1.96658C8.39243 1.96658 2.15344 8.2054 2.15036 15.8734C2.14933 18.3247 2.78967 20.7175 4.00681 22.8266L2.0337 30.0335L9.40657 28.0994C11.4381 29.2076 13.7252 29.7916 16.0528 29.7923H16.0586C23.7237 29.7923 29.9634 23.5529 29.9663 15.8846C29.9678 12.1682 28.5225 8.67409 25.8966 6.04539ZM16.0584 27.4435H16.0536C13.9794 27.4426 11.9452 26.8852 10.1701 25.8322L9.74816 25.5815L5.37298 26.7293L6.54078 22.4636L6.26583 22.0262C5.10865 20.1857 3.80513 18.0576 3.80616 15.8734C3.80856 9.49996 9.59226 3.85233 15.9685 3.85233C19.0561 3.85335 22.2061 5.40956 24.3885 7.59458C26.571 9.77959 28.042 12.7957 28.041 15.8846C28.0382 22.2585 22.43 27.4435 16.0584 27.4435ZM22.3992 18.7858C22.0518 18.6118 20.3431 17.7713 20.0245 17.6552C19.7062 17.5392 19.4743 17.4815 19.2428 17.8292C19.0111 18.177 18.3452 18.9599 18.1424 19.1916C17.9395 19.4236 17.737 19.4527 17.3895 19.2787C17.0419 19.1048 15.9222 18.7377 14.5948 17.5538C13.5618 16.6323 12.8644 15.4943 12.6616 15.1466C12.4591 14.7985 12.6599 14.6285 12.814 14.4374C13.1902 13.9702 13.5669 13.4804 13.6827 13.2487C13.7987 13.0167 13.7406 12.8137 13.6536 12.6398C13.5669 12.466 12.8719 10.7555 12.5824 10.0595C12.3001 9.38211 12.0139 9.47358 11.8004 9.46296C11.5979 9.45285 11.3662 9.4508 11.1344 9.4508C10.9028 9.4508 10.5262 9.53765 10.2076 9.88575C9.88914 10.2337 8.99149 11.0743 8.99149 12.7848C8.99149 14.4953 10.2367 16.1477 10.4104 16.3796C10.5841 16.6116 12.861 20.1217 16.3469 21.6268C17.176 21.9851 17.8232 22.1988 18.3281 22.3589C19.1606 22.6234 19.918 22.5861 20.5168 22.4967C21.1846 22.3968 22.5727 21.6559 22.8625 20.8442C23.1521 20.0324 23.1521 19.3367 23.065 19.1916C22.9784 19.0467 22.7466 18.9599 22.3992 18.7858Z" fill="#161616"/>
</svg>
