<svg width="129" height="32" viewBox="0 0 129 32" fill="none" xmlns="http://www.w3.org/2000/svg">
<path fill-rule="evenodd" clip-rule="evenodd" d="M100.122 0.130174C99.0604 1.22185 92.9135 8.87402 92.7681 9.28413C92.6296 9.67471 92.6973 9.75565 93.163 9.75826C93.4719 9.75977 93.9701 9.8201 94.2702 9.89192L94.8157 10.0228V17.1188C94.8157 24.6438 94.7117 25.4931 93.5807 27.2086L93.0946 27.9464L93.6076 28.092C94.3505 28.3031 98.2276 30.6633 98.9188 31.3254C99.2422 31.635 99.6107 31.8882 99.738 31.8882C100.091 31.8882 105.936 27.4747 105.953 27.1952C105.961 27.0606 105.807 26.8308 105.61 26.6846C105.318 26.4676 105.065 26.5414 104.24 27.0847C103.123 27.8201 103.169 27.8288 101.543 26.585L100.392 25.704L100.392 17.7296V9.75522H103.422H106.453V8.45327V7.15133H103.549H100.646L100.58 3.43928C100.518 -0.00284105 100.485 -0.243483 100.122 0.130174ZM8.86434 9.64737L5.46458 13.0051L5.67986 15.4488C5.8857 17.7863 5.55913 23.6051 5.19207 24.1367C4.76513 24.7549 3.41231 21.31 3.16186 18.9673C2.80111 15.5912 3.82131 12.8556 6.57811 9.80621C7.9079 8.33523 7.75153 8.11 6.06559 9.06692C4.4645 9.97568 3.03531 11.5556 1.81922 13.7606C-1.12644 19.1029 -0.439365 25.5079 3.47728 29.2143C7.18421 32.7224 13.3531 32.9103 17.3973 29.6383C18.6679 28.6102 19.9013 26.7705 19.9013 25.9034C19.9013 25.4742 19.8023 25.5105 18.8709 26.2806C18.304 26.749 17.0707 27.4755 16.1301 27.895C14.6514 28.5542 14.2245 28.6486 12.9783 28.5913L11.537 28.5249L11.4708 24.6805L11.4046 20.836L14.1377 20.7746L16.8707 20.7132L17.6531 18.9773C18.0834 18.0226 18.4381 17.168 18.441 17.0786C18.4442 16.9892 17.4165 16.9159 16.1577 16.9159H13.8686L12.8273 18.1093C12.2544 18.7657 11.7026 19.3028 11.6008 19.3028C11.4989 19.3028 11.4158 17.3499 11.4158 14.963C11.4158 12.5761 11.5116 10.6232 11.6287 10.6232C11.9075 10.6232 13.2804 11.1398 15.1162 11.9358C15.9284 12.2879 16.67 12.5761 16.7643 12.5761C16.9275 12.5761 19.9013 8.54333 19.9013 8.32221C19.9013 8.26406 19.5325 8.2786 19.0818 8.35411C17.9174 8.54962 15.4246 7.92729 13.8036 7.03633C13.0501 6.62231 12.3955 6.28489 12.3489 6.28663C12.3024 6.28836 10.7343 7.80078 8.86434 9.64737ZM36.0236 7.97763C34.1394 8.73905 34.0046 8.76075 31.296 8.7384C28.9002 8.71865 28.1923 8.62361 26.2653 8.06378C25.0318 7.70553 24.0228 7.45013 24.0228 7.49635C24.0228 7.54278 24.6429 8.5826 25.4008 9.80708C26.5073 11.5946 29.3565 16.756 29.3565 16.973C29.3565 17.0012 28.4291 16.9899 27.2957 16.9478C26.1623 16.9057 25.235 16.9239 25.235 16.9879C25.235 17.0522 25.3414 17.3551 25.4714 17.6613C25.7009 18.2014 25.772 18.2178 27.8718 18.2178H30.0358L30.5447 18.9897C30.8247 19.4143 31.0536 19.8049 31.0536 19.8576C31.0536 19.9106 30.0171 19.9538 28.7504 19.9538C27.4836 19.9538 26.4472 19.9963 26.4472 20.0482C26.4472 20.1 26.5536 20.393 26.6836 20.6991C26.917 21.2488 26.9524 21.2557 29.5322 21.2583L32.1446 21.2609L33.7876 23.157C34.6912 24.1998 36.6004 26.1128 38.0303 27.408L40.63 29.7628L38.6682 28.8875C35.9608 27.6795 34.0758 27.2655 31.1748 27.2423C29.218 27.2266 28.4308 27.3217 27.094 27.7348L25.4376 28.2465L24.7498 27.6569C24.0732 27.0765 23.4402 27.0845 23.5852 27.6717C23.7049 28.1569 27.0256 31.867 27.35 31.878C27.5132 31.8837 28.4461 31.604 29.4231 31.2568C33.4208 29.8353 36.7999 29.8004 41.1197 31.1353C42.5354 31.5727 43.7592 31.8722 43.8392 31.8006C43.9192 31.7292 43.6125 31.2069 43.1577 30.6401C41.305 28.3318 40.3202 26.8844 38.7693 24.192L37.1405 21.3642L39.2786 21.1472C41.3554 20.9365 41.4107 20.9163 41.2128 20.442C41.0213 19.9826 40.8727 19.9538 38.7033 19.9538H36.3972L35.9024 19.0858L35.4076 18.2178H37.5946C38.7974 18.2178 39.7815 18.1736 39.7815 18.1195C39.7815 18.0655 39.6549 17.7726 39.5 17.4686C39.2253 16.9287 39.1611 16.9159 36.7393 16.9159H34.2599L32.8467 15.3427C32.0694 14.4776 30.3388 12.7568 29.0011 11.5191L26.5684 9.26851L28.8037 10.2704C32.522 11.9364 36.1153 12.2482 39.4353 11.1923C40.3476 10.9022 40.4155 10.9129 41.056 11.4493C41.5452 11.8592 41.7962 11.9447 41.993 11.7685C42.3358 11.4616 38.8997 7.1407 38.3385 7.1726C38.1321 7.18453 37.0904 7.54669 36.0236 7.97763ZM50.975 9.35899C49.7633 10.8868 49.3017 11.6361 49.4762 11.7923C49.6505 11.9483 49.924 11.8427 50.3638 11.449C50.9772 10.9001 51.0332 10.8907 51.968 11.1861C55.3785 12.263 58.6539 12.0041 62.4081 10.3611L64.8606 9.28739L62.6779 11.3115C61.4771 12.4246 59.7521 14.1412 58.8444 15.1257L57.1939 16.9159H54.7088C52.2813 16.9159 52.2173 16.9287 51.9426 17.4686C51.7877 17.7726 51.6611 18.0655 51.6611 18.1195C51.6611 18.1736 52.643 18.2178 53.8431 18.2178C55.0432 18.2178 56.0251 18.2795 56.0251 18.355C56.0251 18.4305 55.7979 18.8211 55.5203 19.2229L55.0158 19.9538H52.7693C50.6741 19.9538 50.5066 19.9865 50.2775 20.442C50.037 20.9205 50.0748 20.9346 52.1833 21.1472L54.3343 21.3642L52.9029 23.9182C52.1157 25.323 50.6414 27.5784 49.6268 28.9307C48.0519 31.0294 47.5362 31.8882 47.8507 31.8882C47.8885 31.8882 49.0614 31.5376 50.4569 31.109C52.4941 30.4832 53.4726 30.3088 55.419 30.2244C58 30.1124 59.5099 30.3704 62.7354 31.474L64.2329 31.9868L64.7079 31.4493C64.969 31.1537 65.842 30.1794 66.6481 29.2844C67.9183 27.8739 68.0679 27.615 67.7702 27.3423C67.4707 27.068 67.3384 27.103 66.7422 27.6144L66.0575 28.2014L64.0113 27.6407C62.2742 27.1648 61.6533 27.0964 59.9041 27.1887C57.1725 27.3323 55.8527 27.6376 53.2263 28.7336L51.0337 29.6485L52.9996 27.8932C55.1195 26.0004 57.4111 23.6526 58.5729 22.1825L59.298 21.265L61.8958 21.2603C64.2128 21.2561 64.5205 21.2104 64.7445 20.836C65.2296 20.0247 65.063 19.9538 62.6767 19.9538H60.358L60.903 19.0858L61.448 18.2178H63.5914C65.6692 18.2178 65.7419 18.2007 65.9712 17.6613C66.1012 17.3551 66.2076 17.0548 66.2076 16.9938C66.2076 16.9328 65.3346 16.9146 64.2676 16.9537C62.9448 17.0018 62.3276 16.9467 62.3281 16.7803C62.329 16.3667 63.9068 13.4091 65.706 10.4489C66.6486 8.89767 67.4198 7.58141 67.4198 7.52347C67.4198 7.46575 66.4105 7.71204 65.1772 8.07094C63.2438 8.63359 62.5504 8.72625 60.1466 8.74317C57.4327 8.76227 57.3047 8.74122 55.3368 7.95702C54.2249 7.51392 53.1827 7.15133 53.0205 7.15133C52.8583 7.15133 51.9377 8.14472 50.975 9.35899ZM79.941 8.46109C79.0541 9.06193 77.374 10.016 76.2076 10.5809L74.087 11.6083L73.9657 19.3071C73.8591 26.087 73.7941 27.0884 73.4219 27.6975C73.1897 28.0777 72.8895 28.4496 72.7552 28.524C72.1191 28.8758 72.5996 29.2436 74.0232 29.4942C75.6796 29.7858 76.4539 30.0935 77.9156 31.0411C78.4468 31.3855 79.2619 31.7613 79.7269 31.8763C80.5551 32.0809 80.6511 32.0317 84.414 29.4653C87.726 27.2067 88.223 26.7909 88.0191 26.4496C87.6189 25.7804 87.461 25.8138 85.8401 26.9096C84.9762 27.4935 84.1604 27.9755 84.0271 27.9802C83.8937 27.985 82.7754 27.5827 81.5421 27.086L79.2995 26.1831V23.7476V21.3123L84.1624 17.556L89.025 13.7999L85.4381 10.5841C83.4653 8.81543 81.7842 7.36832 81.7025 7.36832C81.6206 7.36832 80.8281 7.86002 79.941 8.46109ZM117.006 8.13235C115.583 9.02027 113.772 9.59985 112.335 9.62719C111.767 9.63783 111.302 9.7116 111.302 9.7908C111.302 9.87022 111.847 11.27 112.514 12.9016C113.181 14.5331 113.726 15.9681 113.726 16.0905C113.726 16.2126 113.173 16.8541 112.497 17.5161C109.127 20.8165 107.725 25.6437 109.331 28.4164C110.14 29.8129 111.355 31.0776 112.347 31.556L113.204 31.9692L114.598 30.8979C115.365 30.3088 116.764 29.2514 117.708 28.5481C118.651 27.8451 119.657 27.0817 119.941 26.8521L120.459 26.4344L120.747 27.9132C121.126 29.86 122.082 31.428 123.13 31.8197C123.57 31.9844 124.062 32.0479 124.222 31.9611C124.868 31.6129 129 28.3411 129 28.1784C129 28.0824 128.809 27.9084 128.576 27.7915C128.268 27.6374 128.033 27.6756 127.718 27.9303C127.315 28.2569 127.238 28.2402 126.627 27.691L125.969 27.1003L126.014 19.6854L126.059 12.2704L126.998 10.5789C127.838 9.0654 127.889 8.88726 127.476 8.88726C127.222 8.88726 126.687 9.096 126.286 9.35118L125.558 9.81511L122.248 8.67677C120.428 8.05076 118.775 7.50307 118.575 7.45946C118.375 7.41606 117.669 7.71876 117.006 8.13235ZM10.6885 19.2177V28.4635L10.0622 28.3229C9.17999 28.1245 7.80802 27.3139 6.74564 26.363C5.76278 25.4833 5.64689 25.1409 6.19408 24.7343C6.38901 24.5896 7.12554 23.6745 7.83056 22.7006L9.1126 20.9302L9.18897 16.0479L9.26509 11.1657L9.90102 10.5689C10.2506 10.2406 10.5709 9.97221 10.6126 9.97221C10.6543 9.97221 10.6885 14.1328 10.6885 19.2177ZM117.119 11.839L120.515 13.055V15.873V18.6911L118.636 17.77C114.974 15.9748 115.16 16.1488 114.135 13.5675C113.628 12.2884 113.153 11.1025 113.08 10.9324C112.855 10.4084 113.576 10.5702 117.119 11.839ZM83.4372 15.426L84.1444 16.2146L81.8492 17.7587C80.5868 18.608 79.4968 19.3028 79.4267 19.3028C79.3567 19.3028 79.2995 17.5723 79.2995 15.4571V11.6114L81.0147 13.1244C81.9581 13.9566 83.0483 14.9923 83.4372 15.426ZM119.835 19.7179L120.511 20.0623L120.513 22.5761L120.515 25.0899L118.551 26.5904C117.471 27.4156 116.414 28.0909 116.203 28.0909C115.631 28.0909 114.009 25.2247 113.605 23.5003C113.137 21.5039 113.439 19.6973 114.513 18.0683L114.992 17.341L117.075 18.3574C118.221 18.9163 119.463 19.5285 119.835 19.7179Z" fill="#161616"/>
</svg>
